<svg xmlns="http://www.w3.org/2000/svg" width="16" height="16"><path d="M2.031 0c-.542 0-1 .329-1 .938v14.124c0 .587.377.938 1 .938h13.031c.52 0 .938-.351.938-.938V.938A.908.908 0 0 0 15.062 0zM3 2.031h11.031V5H3zM3.188 6h1.624A.18.18 0 0 1 5 6.188v1.625A.18.18 0 0 1 4.812 8H3.188A.179.179 0 0 1 3 7.812V6.188a.18.18 0 0 1 .188-.187zm3 0h1.625A.18.18 0 0 1 8 6.188v1.625A.18.18 0 0 1 7.812 8H6.188A.179.179 0 0 1 6 7.812V6.188a.18.18 0 0 1 .188-.187zm3 0h1.624a.18.18 0 0 1 .188.188v1.625a.18.18 0 0 1-.188.187H9.188A.179.179 0 0 1 9 7.812V6.188a.18.18 0 0 1 .188-.187zm3 0h1.624a.18.18 0 0 1 .188.188v1.625a.18.18 0 0 1-.188.187h-1.624A.179.179 0 0 1 12 7.812V6.188a.18.18 0 0 1 .188-.187zm-9 3h1.624A.18.18 0 0 1 5 9.188v1.624a.18.18 0 0 1-.188.188H3.188A.179.179 0 0 1 3 10.812V9.188C3 9.076 3.077 9 3.188 9zm3 0h1.625A.18.18 0 0 1 8 9.188v1.624a.18.18 0 0 1-.188.188H6.188A.179.179 0 0 1 6 10.812V9.188C6 9.076 6.077 9 6.188 9zm3 0h1.624a.18.18 0 0 1 .188.188v1.624a.18.18 0 0 1-.188.188H9.188A.179.179 0 0 1 9 10.812V9.188C9 9.076 9.077 9 9.188 9zm3 0h1.624a.18.18 0 0 1 .188.188v1.624a.18.18 0 0 1-.188.188h-1.624a.179.179 0 0 1-.188-.188V9.188A.18.18 0 0 1 12.188 9zm-9 3h1.624a.18.18 0 0 1 .188.188v1.624a.18.18 0 0 1-.188.188H3.188A.179.179 0 0 1 3 13.812v-1.624A.18.18 0 0 1 3.188 12zm3 0h1.625a.18.18 0 0 1 .187.188v1.624a.18.18 0 0 1-.188.188H6.188A.179.179 0 0 1 6 13.812v-1.624A.18.18 0 0 1 6.188 12zm3 0h1.624a.18.18 0 0 1 .188.188v1.624a.18.18 0 0 1-.188.188H9.188A.179.179 0 0 1 9 13.812v-1.624A.18.18 0 0 1 9.188 12zm3 0h1.624a.18.18 0 0 1 .188.188v1.624a.18.18 0 0 1-.188.188h-1.624a.179.179 0 0 1-.188-.188v-1.624a.18.18 0 0 1 .188-.188z" fill="#474747"/></svg>