<svg xmlns="http://www.w3.org/2000/svg" width="16" height="16"><path d="M40 328c-1.662 0-3 1.338-3 3v5c0 1.662 1.338 3 3 3s3-1.338 3-3v-5c0-1.662-1.338-3-3-3zm-6 6v2.01c0 2.966 2.165 5.424 5 5.9V344h2v-2.09c2.835-.476 5-2.934 5-5.9V334h-1.5v2.01c0 2.5-1.993 4.49-4.5 4.49-2.507 0-4.5-1.99-4.5-4.49V334z" style="line-height:normal;font-variant-ligatures:normal;font-variant-position:normal;font-variant-caps:normal;font-variant-numeric:normal;font-variant-alternates:normal;font-feature-settings:normal;text-indent:0;text-align:start;text-decoration-line:none;text-decoration-style:solid;text-decoration-color:#000;text-transform:none;text-orientation:mixed;white-space:normal;shape-padding:0;isolation:auto;mix-blend-mode:normal;solid-color:#000;solid-opacity:1" color="#000" font-weight="400" font-family="sans-serif" overflow="visible" fill="#2e3436" transform="translate(-32 -328)"/></svg>