<svg xmlns="http://www.w3.org/2000/svg" width="16" height="16"><g fill="#2e3436"><path d="M198 248v4.586l-1.293-1.293A1 1 0 0 0 196 251h-1v1a1 1 0 0 0 .293.707l2.293 2.293h4.828l1.293-1.293a1 1 0 0 0 0-1.414l-4-4a1 1 0 0 0-.678-.293 1 1 0 0 0-.029 0zm2 3.414 1.586 1.586-1.586 1.586zM195 260v1h.97a1 1 0 0 0 .03 0 1 1 0 0 0 .707-.293l.707-.707zm3 0v4h1a1 1 0 0 0 .707-.293l3.707-3.707h-2.828l-.586.586V260z" style="line-height:normal;font-variant-ligatures:normal;font-variant-position:normal;font-variant-caps:normal;font-variant-numeric:normal;font-variant-alternates:normal;font-feature-settings:normal;text-indent:0;text-align:start;text-decoration-line:none;text-decoration-style:solid;text-decoration-color:#000;text-transform:none;text-orientation:mixed;white-space:normal;shape-padding:0;isolation:auto;mix-blend-mode:normal;solid-color:#000;solid-opacity:1" color="#000" font-weight="400" font-family="sans-serif" overflow="visible" opacity=".35" transform="translate(-192 -248)"/><path d="M0 8h16v3H0z"/></g></svg>