<svg height="16" style="enable-background:new" width="16" xmlns="http://www.w3.org/2000/svg"><path d="M218 208v4.586l-1.293-1.293A1 1 0 0 0 216 211h-1v1a1 1 0 0 0 .293.707l2.707 2.707v1.172l-2.707 2.707A1 1 0 0 0 215 220v1h.97a1 1 0 0 0 .03 0 1 1 0 0 0 .707-.293l1.293-1.293V224h1a1 1 0 0 0 .707-.293l2.566-2.566a.989.989 0 0 1-.261-.672V219a.989.989 0 0 1 .988-.988h.426L221.414 216l2.293-2.293a1 1 0 0 0 0-1.414l-4-4a1 1 0 0 0-.678-.293 1 1 0 0 0-.029 0zm2 3.414 1.586 1.586-1.586 1.586zm0 6 1.586 1.586-1.586 1.586z" style="color:#000;font-style:normal;font-variant:normal;font-weight:400;font-stretch:normal;font-size:medium;line-height:normal;font-family:sans-serif;font-variant-ligatures:normal;font-variant-position:normal;font-variant-caps:normal;font-variant-numeric:normal;font-variant-alternates:normal;font-variant-east-asian:normal;font-feature-settings:normal;font-variation-settings:normal;text-indent:0;text-align:start;text-decoration:none;text-decoration-line:none;text-decoration-style:solid;text-decoration-color:#000;letter-spacing:normal;word-spacing:normal;text-transform:none;writing-mode:lr-tb;direction:ltr;text-orientation:mixed;dominant-baseline:auto;baseline-shift:baseline;text-anchor:start;white-space:normal;shape-padding:0;shape-margin:0;inline-size:0;clip-rule:nonzero;display:inline;overflow:visible;visibility:visible;opacity:.35;isolation:auto;mix-blend-mode:normal;color-interpolation:sRGB;color-interpolation-filters:linearRGB;solid-color:#000;solid-opacity:1;vector-effect:none;fill:#2e3436;fill-opacity:1;fill-rule:nonzero;stroke:none;stroke-width:2;stroke-linecap:butt;stroke-linejoin:miter;stroke-miterlimit:4;stroke-dasharray:none;stroke-dashoffset:0;stroke-opacity:1;color-rendering:auto;image-rendering:auto;shape-rendering:auto;text-rendering:auto;enable-background:accumulate;stop-color:#000" transform="translate(-212 -208)"/><path d="M223 219h1.375l1.125 1.094 1.094-1.094H228v1.469l-1.094 1.062 1.094 1.063V224h-1.438l-1.062-1.063-1.063 1.063H223v-1.406l1.062-1.063L223 220.47z" style="color:#bebebe;display:inline;overflow:visible;visibility:visible;fill:#2e3436;fill-opacity:1;stroke:none;stroke-width:2;marker:none;enable-background:new" transform="translate(-212 -208)"/></svg>