<svg xmlns="http://www.w3.org/2000/svg" width="16" height="16"><path d="M51.502 459a3.5 3.5 0 0 1 3.5 3.5c0 1.12-.526 2.11-1.344 2.75.21.183.344.448.344.75-.002 2 0 3.052 0 6 0 .554-.446 1-1 1h-9c-.554 0-1-.446-1-1v-2.156l-2.563 1.906a.27.27 0 0 1-.062.031.295.295 0 0 1-.094 0 .326.326 0 0 1-.063 0 .287.287 0 0 1-.062-.031.283.283 0 0 1-.063-.031.317.317 0 0 1-.03-.031.317.317 0 0 1-.032-.032.267.267 0 0 1-.031-.062.326.326 0 0 1 0-.063v-6.062a.326.326 0 0 1 0-.063.283.283 0 0 1 .031-.062.317.317 0 0 1 .031-.031.317.317 0 0 1 .031-.032.317.317 0 0 1 .032-.03.317.317 0 0 1 .03-.032.27.27 0 0 1 .063-.031.295.295 0 0 1 .094 0h.031c.011.01.022.02.031.031a.283.283 0 0 1 .063.031L43 467.157V466c0-.301.134-.567.344-.75a3.481 3.481 0 0 1-1.344-2.75 3.5 3.5 0 0 1 3.5-3.5c1.284 0 2.391.689 3 1.719a3.471 3.471 0 0 1 3-1.719zm0 2a1.5 1.5 0 1 0 0 3 1.5 1.5 0 0 0 0-3zm-6 0a1.5 1.5 0 1 0 0 3 1.5 1.5 0 0 0 0-3zm3 3.281a3.42 3.42 0 0 1-.563.719h1.125a3.42 3.42 0 0 1-.562-.719z" style="color:#000;display:inline;overflow:visible;visibility:visible;fill:#2e3436;fill-opacity:1;fill-rule:nonzero;stroke:none;stroke-width:1;marker:none;enable-background:accumulate" transform="translate(-40 -458)"/></svg>