<svg height="16" width="16" xmlns="http://www.w3.org/2000/svg"><filter id="a" height="100%" width="100%" x="0%" y="0%"><feColorMatrix in="SourceGraphic" values="0 0 0 0 1 0 0 0 0 1 0 0 0 0 1 0 0 0 1 0"/></filter><mask id="c"><g filter="url(#a)"><path d="M0 0h16v16H0z" fill-opacity=".3"/></g></mask><clipPath id="b"><path d="M0 0h1024v800H0z"/></clipPath><mask id="e"><g filter="url(#a)"><path d="M0 0h16v16H0z" fill-opacity=".05"/></g></mask><clipPath id="d"><path d="M0 0h1024v800H0z"/></clipPath><mask id="g"><g filter="url(#a)"><path d="M0 0h16v16H0z" fill-opacity=".05"/></g></mask><clipPath id="f"><path d="M0 0h1024v800H0z"/></clipPath><mask id="i"><g filter="url(#a)"><path d="M0 0h16v16H0z" fill-opacity=".05"/></g></mask><clipPath id="h"><path d="M0 0h1024v800H0z"/></clipPath><mask id="k"><g filter="url(#a)"><path d="M0 0h16v16H0z" fill-opacity=".05"/></g></mask><clipPath id="j"><path d="M0 0h1024v800H0z"/></clipPath><mask id="m"><g filter="url(#a)"><path d="M0 0h16v16H0z" fill-opacity=".05"/></g></mask><clipPath id="l"><path d="M0 0h1024v800H0z"/></clipPath><mask id="o"><g filter="url(#a)"><path d="M0 0h16v16H0z" fill-opacity=".05"/></g></mask><clipPath id="n"><path d="M0 0h1024v800H0z"/></clipPath><mask id="q"><g filter="url(#a)"><path d="M0 0h16v16H0z" fill-opacity=".3"/></g></mask><clipPath id="p"><path d="M0 0h1024v800H0z"/></clipPath><mask id="s"><g filter="url(#a)"><path d="M0 0h16v16H0z" fill-opacity=".5"/></g></mask><clipPath id="r"><path d="M0 0h1024v800H0z"/></clipPath><mask id="u"><g filter="url(#a)"><path d="M0 0h16v16H0z" fill-opacity=".4"/></g></mask><clipPath id="t"><path d="M0 0h1024v800H0z"/></clipPath><mask id="w"><g filter="url(#a)"><path d="M0 0h16v16H0z" fill-opacity=".4"/></g></mask><clipPath id="v"><path d="M0 0h1024v800H0z"/></clipPath><mask id="y"><g filter="url(#a)"><path d="M0 0h16v16H0z" fill-opacity=".5"/></g></mask><clipPath id="x"><path d="M0 0h1024v800H0z"/></clipPath><mask id="A"><g filter="url(#a)"><path d="M0 0h16v16H0z" fill-opacity=".5"/></g></mask><clipPath id="z"><path d="M0 0h1024v800H0z"/></clipPath><g clip-path="url(#b)" mask="url(#c)" transform="translate(-20 -120)"><path d="M562.46 212.059h10.45c-1.183.492-1.297 2.46 0 3h-10.45zm0 0" fill="#2e3436"/></g><g clip-path="url(#d)" mask="url(#e)" transform="translate(-20 -120)"><path d="M16 632h1v1h-1zm0 0" fill="#2e3436" fill-rule="evenodd"/></g><g clip-path="url(#f)" mask="url(#g)" transform="translate(-20 -120)"><path d="M17 631h1v1h-1zm0 0" fill="#2e3436" fill-rule="evenodd"/></g><g clip-path="url(#h)" mask="url(#i)" transform="translate(-20 -120)"><path d="M18 634h1v1h-1zm0 0" fill="#2e3436" fill-rule="evenodd"/></g><g clip-path="url(#j)" mask="url(#k)" transform="translate(-20 -120)"><path d="M16 634h1v1h-1zm0 0" fill="#2e3436" fill-rule="evenodd"/></g><g clip-path="url(#l)" mask="url(#m)" transform="translate(-20 -120)"><path d="M17 635h1v1h-1zm0 0" fill="#2e3436" fill-rule="evenodd"/></g><g clip-path="url(#n)" mask="url(#o)" transform="translate(-20 -120)"><path d="M19 635h1v1h-1zm0 0" fill="#2e3436" fill-rule="evenodd"/></g><g clip-path="url(#p)" mask="url(#q)" transform="translate(-20 -120)"><path d="M136 660v7h7v-7zm0 0" fill="#2e3436"/></g><g clip-path="url(#r)" mask="url(#s)" transform="translate(-20 -120)"><path d="M199 642h3v12h-3zm0 0" fill="#2e3436"/></g><path d="M8 0a8 8 0 0 0-5.605 2.293L5.113 7 9.105.086A8.056 8.056 0 0 0 8 0zm2.137.3L7.422 5h7.988A7.982 7.982 0 0 0 10.137.3zM1.699 3.087A8.002 8.002 0 0 0 0 8c0 .676.09 1.348.262 2h5.43zM10.31 6l3.992 6.914A8.002 8.002 0 0 0 16 8a7.85 7.85 0 0 0-.262-2zm.578 3-3.992 6.914c.367.055.734.082 1.105.086 2.098 0 4.11-.824 5.605-2.297zM.59 11a7.982 7.982 0 0 0 5.273 4.7L8.578 11zm0 0" fill="#2e3436"/><g clip-path="url(#t)" mask="url(#u)" transform="translate(-20 -120)"><path d="M209.5 144.16c.277 0 .5.223.5.5v1c0 .278-.223.5-.5.5s-.5-.222-.5-.5v-1c0-.277.223-.5.5-.5zm0 0" fill="#2e3436"/></g><g clip-path="url(#v)" mask="url(#w)" transform="translate(-20 -120)"><path d="M206.5 144.16c.277 0 .5.223.5.5v1c0 .278-.223.5-.5.5s-.5-.222-.5-.5v-1c0-.277.223-.5.5-.5zm0 0" fill="#2e3436"/></g><g clip-path="url(#x)" mask="url(#y)" transform="translate(-20 -120)"><path d="M229.5 143.16c-.547 0-1 .457-1 1 0 .547.453 1 1 1s1-.453 1-1c0-.543-.453-1-1-1zm0 0" fill="#2e3436"/></g><g clip-path="url(#z)" mask="url(#A)" transform="translate(-20 -120)"><path d="M226.453 143.16a.962.962 0 0 0-.953.953v.094c0 .52.434.953.953.953h.094c.52 0 .953-.433.953-.953v-.094a.962.962 0 0 0-.953-.953zm0 0" fill="#2e3436"/></g></svg>