<svg height="16" style="enable-background:new" width="16" xmlns="http://www.w3.org/2000/svg"><path d="M314.5 810a2.495 2.495 0 0 0-2.5 2.5v7c0 1.385 1.115 2.5 2.5 2.5h8.375l2.078 1.972 1.047.001v-2.036a2.486 2.486 0 0 0 2-2.437v-7c0-1.385-1.115-2.5-2.5-2.5zm0 2h11c.277 0 .5.223.5.5v7c0 .277-.223.5-.5.5h-11a.499.499 0 0 1-.5-.5v-7c0-.277.223-.5.5-.5zm4.5 1v2h-2v2h2v2h2v-2h2v-2h-2v-2z" style="fill:#2e3436;fill-opacity:1;stroke:none;stroke-width:1px;stroke-linecap:butt;stroke-linejoin:miter;stroke-opacity:1" transform="translate(-312 -808)"/></svg>