<svg height="16" style="enable-background:new" width="16.006" xmlns="http://www.w3.org/2000/svg"><path d="M338 789a3 3 0 1 0 0 6 3 3 0 0 0 0-6zm-1.5 7a4.49 4.49 0 0 0-4.5 4.5v1.5c0 1 1 1 1 1h10s1 0 1-1v-1.5a4.49 4.49 0 0 0-4.5-4.5z" style="color:#bebebe;display:inline;overflow:visible;visibility:visible;fill:#2e3436;fill-opacity:1;fill-rule:nonzero;stroke:none;stroke-width:1.84615;marker:none;enable-background:accumulate" transform="translate(-332 -788)"/><path d="M344.006 789.003V791h-2v1.997h2v1.996h2v-1.996h2V791h-2v-1.997z" style="display:inline;fill:#2e3436;fill-opacity:1;stroke:none;enable-background:new" transform="translate(-332 -788)"/></svg>