<svg xmlns="http://www.w3.org/2000/svg" width="16" height="16"><path d="M8 .031c-.4 0-.815.16-1.125.469L.5 6.875c-.62.62-.62 1.63 0 2.25L6.875 15.5c.62.62 1.63.62 2.25 0L15.5 9.125c.62-.62.62-1.63 0-2.25L9.125.5A1.604 1.604 0 0 0 8 .031zm.152 2.975a3.001 3.001 0 0 1 1.97.873 3.006 3.006 0 0 1 .65 3.27A2.998 2.998 0 0 1 9 8.82V10H7V8a1 1 0 0 1 1-1c.407 0 .768-.24.924-.617a.994.994 0 0 0-.217-1.09.994.994 0 0 0-1.09-.217A.994.994 0 0 0 7 6H5c0-1.21.733-2.308 1.852-2.771a2.98 2.98 0 0 1 1.3-.223zM8 11a1 1 0 0 1 1 1 1 1 0 0 1-1 1 1 1 0 0 1-1-1 1 1 0 0 1 1-1z" style="marker:none" color="#bebebe" overflow="visible" fill="#2e3436"/></svg>