<svg height="16" style="enable-background:new" width="16" xmlns="http://www.w3.org/2000/svg"><path d="M52.5 135h2c.277 0 .5.223.5.5v1c0 .277-.223.5-.5.5h-2a.499.499 0 0 1-.5-.5v-1c0-.277.223-.5.5-.5zM65.5 135h2c.277 0 .5.223.5.5v1c0 .277-.223.5-.5.5h-2a.499.499 0 0 1-.5-.5v-1c0-.277.223-.5.5-.5z" style="color:#bebebe;display:inline;overflow:visible;visibility:visible;fill:#2e3436;fill-opacity:1;fill-rule:nonzero;stroke:none;stroke-width:2;marker:none;enable-background:new" transform="translate(-52 -128)"/><path d="M-61.24 137.593h2c.277 0 .5.223.5.5v1c0 .277-.223.5-.5.5h-2a.499.499 0 0 1-.5-.5v-1c0-.277.223-.5.5-.5zM-48.24 137.593h2c.277 0 .5.223.5.5v1c0 .277-.223.5-.5.5h-2a.499.499 0 0 1-.5-.5v-1c0-.277.223-.5.5-.5z" style="color:#bebebe;display:inline;overflow:visible;visibility:visible;fill:#2e3436;fill-opacity:1;fill-rule:nonzero;stroke:none;stroke-width:2;marker:none;enable-background:new" transform="rotate(-45 -180.51 -1.23)"/><path d="M-143.5 59h2c.277 0 .5.223.5.5v1c0 .277-.223.5-.5.5h-2a.499.499 0 0 1-.5-.5v-1c0-.277.223-.5.5-.5zM-130.5 59h2c.277 0 .5.223.5.5v1c0 .277-.223.5-.5.5h-2a.499.499 0 0 1-.5-.5v-1c0-.277.223-.5.5-.5z" style="color:#bebebe;display:inline;overflow:visible;visibility:visible;fill:#2e3436;fill-opacity:1;fill-rule:nonzero;stroke:none;stroke-width:2;marker:none;enable-background:new" transform="rotate(-90 -90 -38)"/><path d="M-146.093-54.74h2c.277 0 .5.223.5.5v1c0 .277-.223.5-.5.5h-2a.499.499 0 0 1-.5-.5v-1c0-.277.223-.5.5-.5zM-133.093-54.74h2c.277 0 .5.223.5.5v1c0 .277-.223.5-.5.5h-2a.499.499 0 0 1-.5-.5v-1c0-.277.223-.5.5-.5z" style="color:#bebebe;display:inline;overflow:visible;visibility:visible;fill:#2e3436;fill-opacity:1;fill-rule:nonzero;stroke:none;stroke-width:2;marker:none;enable-background:new" transform="rotate(-135 -52.51 -53.23)"/><g style="opacity:1"><path d="M64 136a4 4 0 1 1-8 0 4 4 0 0 1 8 0z" style="color:#000;font-style:normal;font-variant:normal;font-weight:400;font-stretch:normal;font-size:medium;line-height:normal;font-family:sans-serif;font-variant-ligatures:normal;font-variant-position:normal;font-variant-caps:normal;font-variant-numeric:normal;font-variant-alternates:normal;font-variant-east-asian:normal;font-feature-settings:normal;font-variation-settings:normal;text-indent:0;text-align:start;text-decoration:none;text-decoration-line:none;text-decoration-style:solid;text-decoration-color:#000;letter-spacing:normal;word-spacing:normal;text-transform:none;writing-mode:lr-tb;direction:ltr;text-orientation:mixed;dominant-baseline:auto;baseline-shift:baseline;text-anchor:start;white-space:normal;shape-padding:0;shape-margin:0;inline-size:0;clip-rule:nonzero;display:inline;overflow:visible;visibility:visible;isolation:auto;mix-blend-mode:normal;color-interpolation:sRGB;color-interpolation-filters:linearRGB;solid-color:#000;solid-opacity:1;vector-effect:none;fill:#2e3436;fill-opacity:1;fill-rule:nonzero;stroke-width:.499999;stroke-linecap:butt;stroke-linejoin:round;stroke-miterlimit:4;stroke-dasharray:none;stroke-dashoffset:0;stroke-opacity:1;color-rendering:auto;image-rendering:auto;shape-rendering:auto;text-rendering:auto;enable-background:new;stop-color:#000;stop-opacity:1;stroke:none" transform="translate(-52 -128)"/><path d="M60 131.75a4.254 4.254 0 0 0-4.25 4.25 4.254 4.254 0 0 0 4.25 4.25 4.254 4.254 0 0 0 4.25-4.25 4.254 4.254 0 0 0-4.25-4.25zm0 .5a3.746 3.746 0 0 1 3.75 3.75 3.746 3.746 0 0 1-3.75 3.75 3.746 3.746 0 0 1-3.75-3.75 3.746 3.746 0 0 1 3.75-3.75z" style="color:#000;font-style:normal;font-variant:normal;font-weight:400;font-stretch:normal;font-size:medium;line-height:normal;font-family:sans-serif;font-variant-ligatures:normal;font-variant-position:normal;font-variant-caps:normal;font-variant-numeric:normal;font-variant-alternates:normal;font-variant-east-asian:normal;font-feature-settings:normal;font-variation-settings:normal;text-indent:0;text-align:start;text-decoration:none;text-decoration-line:none;text-decoration-style:solid;text-decoration-color:#000;letter-spacing:normal;word-spacing:normal;text-transform:none;writing-mode:lr-tb;direction:ltr;text-orientation:mixed;dominant-baseline:auto;baseline-shift:baseline;text-anchor:start;white-space:normal;shape-padding:0;shape-margin:0;inline-size:0;clip-rule:nonzero;display:inline;overflow:visible;visibility:visible;isolation:auto;mix-blend-mode:normal;color-interpolation:sRGB;color-interpolation-filters:linearRGB;solid-color:#000;solid-opacity:1;vector-effect:none;fill-opacity:1;fill-rule:nonzero;stroke-width:.499999;stroke-linecap:butt;stroke-linejoin:round;stroke-miterlimit:4;stroke-dasharray:none;stroke-dashoffset:0;stroke-opacity:1;color-rendering:auto;image-rendering:auto;shape-rendering:auto;text-rendering:auto;enable-background:new;stop-color:#000;stop-opacity:1;stroke:none" transform="translate(-52 -128)"/></g></svg>