<svg height="16" width="16" xmlns="http://www.w3.org/2000/svg"><filter id="a" height="100%" width="100%" x="0%" y="0%"><feColorMatrix in="SourceGraphic" values="0 0 0 0 1 0 0 0 0 1 0 0 0 0 1 0 0 0 1 0"/></filter><mask id="c"><g filter="url(#a)"><path d="M0 0h16v16H0z" fill-opacity=".3"/></g></mask><clipPath id="b"><path d="M0 0h1024v800H0z"/></clipPath><mask id="e"><g filter="url(#a)"><path d="M0 0h16v16H0z" fill-opacity=".05"/></g></mask><clipPath id="d"><path d="M0 0h1024v800H0z"/></clipPath><mask id="g"><g filter="url(#a)"><path d="M0 0h16v16H0z" fill-opacity=".05"/></g></mask><clipPath id="f"><path d="M0 0h1024v800H0z"/></clipPath><mask id="i"><g filter="url(#a)"><path d="M0 0h16v16H0z" fill-opacity=".05"/></g></mask><clipPath id="h"><path d="M0 0h1024v800H0z"/></clipPath><mask id="k"><g filter="url(#a)"><path d="M0 0h16v16H0z" fill-opacity=".05"/></g></mask><clipPath id="j"><path d="M0 0h1024v800H0z"/></clipPath><mask id="m"><g filter="url(#a)"><path d="M0 0h16v16H0z" fill-opacity=".05"/></g></mask><clipPath id="l"><path d="M0 0h1024v800H0z"/></clipPath><mask id="o"><g filter="url(#a)"><path d="M0 0h16v16H0z" fill-opacity=".05"/></g></mask><clipPath id="n"><path d="M0 0h1024v800H0z"/></clipPath><mask id="q"><g filter="url(#a)"><path d="M0 0h16v16H0z" fill-opacity=".3"/></g></mask><clipPath id="p"><path d="M0 0h1024v800H0z"/></clipPath><mask id="s"><g filter="url(#a)"><path d="M0 0h16v16H0z" fill-opacity=".5"/></g></mask><clipPath id="r"><path d="M0 0h1024v800H0z"/></clipPath><mask id="u"><g filter="url(#a)"><path d="M0 0h16v16H0z" fill-opacity=".4"/></g></mask><clipPath id="t"><path d="M0 0h1024v800H0z"/></clipPath><mask id="w"><g filter="url(#a)"><path d="M0 0h16v16H0z" fill-opacity=".4"/></g></mask><clipPath id="v"><path d="M0 0h1024v800H0z"/></clipPath><mask id="y"><g filter="url(#a)"><path d="M0 0h16v16H0z" fill-opacity=".5"/></g></mask><clipPath id="x"><path d="M0 0h1024v800H0z"/></clipPath><mask id="A"><g filter="url(#a)"><path d="M0 0h16v16H0z" fill-opacity=".5"/></g></mask><clipPath id="z"><path d="M0 0h1024v800H0z"/></clipPath><g clip-path="url(#b)" mask="url(#c)" transform="translate(-680 -60)"><path d="M562.46 212.059h10.45c-1.183.492-1.297 2.46 0 3h-10.45zm0 0" fill="#2e3436"/></g><g fill="#2e3436"><path d="M6.262.355a1.002 1.002 0 0 0-.688.301L4.105 2.13A1.5 1.5 0 0 0 2.218 4.28L0 6.5a1.001 1.001 0 0 0 1.426-.012L3 4.914a1.5 1.5 0 0 0 1.832-2.102L7 .646a.998.998 0 0 0-.738-.29zM9.555.07a.998.998 0 0 0 .008 1.422l1.582 1.582a1.43 1.43 0 0 0-.09.496 1.5 1.5 0 0 0 2.187 1.336l2.164 2.164a1.002 1.002 0 0 0-.008-1.426l-1.472-1.468a1.5 1.5 0 0 0-1.371-2.105c-.274 0-.543.077-.782.222zM.594 8.93a1.002 1.002 0 0 0 .008 1.426l1.472 1.468a1.5 1.5 0 0 0 1.371 2.105c.274 0 .543-.077.782-.222l2.218 2.223a.998.998 0 0 0-.007-1.422l-1.583-1.582a1.43 1.43 0 0 0 .09-.496 1.5 1.5 0 0 0-2.187-1.336zM15.227 9.207a.991.991 0 0 0-.688.305l-1.473 1.468a1.527 1.527 0 0 0-.605-.125c-.828 0-1.5.668-1.5 1.5.004.274.078.543.223.778L8.96 15.355c.195.192.465.301.738.29a.987.987 0 0 0 .688-.301l1.578-1.578c.16.058.328.086.496.09.832 0 1.5-.672 1.5-1.5a1.44 1.44 0 0 0-.164-.688L15.96 9.5a.992.992 0 0 0-.734-.293zM5.707 4.293 4.293 5.707l.996.992.008.012c.578.566.71.96.703 1.293-.008.332-.191.758-.715 1.293v.008l-.992.988 1.414 1.414 1.004-1.004h.004c.562-.578.957-.71 1.289-.703.336.008.762.191 1.297.719l.992.988 1.414-1.414-1.008-1.008h-.004v-.004c-.597-.582-.71-.96-.695-1.293.02-.328.223-.77.727-1.3l.98-.981-1.414-1.414-.992.988c-.535.528-.961.711-1.297.719-.332.008-.727-.125-1.29-.703V5.3h-.003l.004-.004-.016-.008zm0 0"/></g><g clip-path="url(#d)" mask="url(#e)" transform="translate(-680 -60)"><path d="M16 632h1v1h-1zm0 0" fill="#2e3436" fill-rule="evenodd"/></g><g clip-path="url(#f)" mask="url(#g)" transform="translate(-680 -60)"><path d="M17 631h1v1h-1zm0 0" fill="#2e3436" fill-rule="evenodd"/></g><g clip-path="url(#h)" mask="url(#i)" transform="translate(-680 -60)"><path d="M18 634h1v1h-1zm0 0" fill="#2e3436" fill-rule="evenodd"/></g><g clip-path="url(#j)" mask="url(#k)" transform="translate(-680 -60)"><path d="M16 634h1v1h-1zm0 0" fill="#2e3436" fill-rule="evenodd"/></g><g clip-path="url(#l)" mask="url(#m)" transform="translate(-680 -60)"><path d="M17 635h1v1h-1zm0 0" fill="#2e3436" fill-rule="evenodd"/></g><g clip-path="url(#n)" mask="url(#o)" transform="translate(-680 -60)"><path d="M19 635h1v1h-1zm0 0" fill="#2e3436" fill-rule="evenodd"/></g><g clip-path="url(#p)" mask="url(#q)" transform="translate(-680 -60)"><path d="M136 660v7h7v-7zm0 0" fill="#2e3436"/></g><g clip-path="url(#r)" mask="url(#s)" transform="translate(-680 -60)"><path d="M199 642h3v12h-3zm0 0" fill="#2e3436"/></g><g clip-path="url(#t)" mask="url(#u)" transform="translate(-680 -60)"><path d="M209.5 144.16c.277 0 .5.223.5.5v1c0 .278-.223.5-.5.5s-.5-.222-.5-.5v-1c0-.277.223-.5.5-.5zm0 0" fill="#2e3436"/></g><g clip-path="url(#v)" mask="url(#w)" transform="translate(-680 -60)"><path d="M206.5 144.16c.277 0 .5.223.5.5v1c0 .278-.223.5-.5.5s-.5-.222-.5-.5v-1c0-.277.223-.5.5-.5zm0 0" fill="#2e3436"/></g><g clip-path="url(#x)" mask="url(#y)" transform="translate(-680 -60)"><path d="M229.5 143.16c-.547 0-1 .457-1 1 0 .547.453 1 1 1s1-.453 1-1c0-.543-.453-1-1-1zm0 0" fill="#2e3436"/></g><g clip-path="url(#z)" mask="url(#A)" transform="translate(-680 -60)"><path d="M226.453 143.16a.962.962 0 0 0-.953.953v.094c0 .52.434.953.953.953h.094c.52 0 .953-.433.953-.953v-.094a.962.962 0 0 0-.953-.953zm0 0" fill="#2e3436"/></g></svg>