<svg height="16" width="16" xmlns="http://www.w3.org/2000/svg"><g fill="#2e3436"><path d="M9.5 10A2.5 2.5 0 0 0 7 12.5c0 .219.04.422.094.625A1.582 1.582 0 0 0 6.5 13a1.5 1.5 0 0 0 0 3h8a1.5 1.5 0 0 0 0-3c0-1.105-.895-2-2-2a2 2 0 0 0-.875.219A2.473 2.473 0 0 0 9.5 10zm0 0"/><path d="M6.988 4.008c-2.195 0-4 1.805-4 4 0 1.894 1.348 3.492 3.13 3.894 0-.004 0-.007.003-.011.477-2.086 2.137-3.004 4.043-2.809.191.047.371.117.547.195.016.004.031.008.043.016.14-.406.234-.836.234-1.29 0-2.19-1.804-4-4-4zM0 7.5c0-.277.223-.5.5-.5h1c.277 0 .5.223.5.5v1c0 .277-.223.5-.5.5h-1a.498.498 0 0 1-.5-.5zm12 0c0-.277.223-.5.5-.5h1c.277 0 .5.223.5.5v1c0 .277-.223.5-.5.5h-1a.498.498 0 0 1-.5-.5zM1.695 12.598a.5.5 0 0 1 0-.707l.707-.707c.2-.2.512-.2.707 0l.707.707c.2.195.2.507 0 .707l-.707.707a.5.5 0 0 1-.707 0zm8.489-8.489a.493.493 0 0 1 0-.707l.707-.707a.5.5 0 0 1 .707 0l.707.707a.5.5 0 0 1 0 .707l-.707.707c-.2.2-.512.2-.707 0zM6.5 3a.498.498 0 0 1-.5-.5v-1c0-.277.223-.5.5-.5h1c.277 0 .5.223.5.5v1c0 .277-.223.5-.5.5zM3.11 4.816c-.196.2-.508.2-.708 0l-.707-.707a.5.5 0 0 1 0-.707l.707-.707a.5.5 0 0 1 .707 0l.707.707c.2.2.2.512 0 .707zm0 0"/></g></svg>