<svg height="16" width="16" xmlns="http://www.w3.org/2000/svg"><filter id="a" height="100%" width="100%" x="0%" y="0%"><feColorMatrix in="SourceGraphic" values="0 0 0 0 1 0 0 0 0 1 0 0 0 0 1 0 0 0 1 0"/></filter><mask id="c"><g filter="url(#a)"><path d="M0 0h16v16H0z" fill-opacity=".3"/></g></mask><clipPath id="b"><path d="M0 0h1024v800H0z"/></clipPath><mask id="e"><g filter="url(#a)"><path d="M0 0h16v16H0z" fill-opacity=".05"/></g></mask><clipPath id="d"><path d="M0 0h1024v800H0z"/></clipPath><mask id="g"><g filter="url(#a)"><path d="M0 0h16v16H0z" fill-opacity=".05"/></g></mask><clipPath id="f"><path d="M0 0h1024v800H0z"/></clipPath><mask id="i"><g filter="url(#a)"><path d="M0 0h16v16H0z" fill-opacity=".05"/></g></mask><clipPath id="h"><path d="M0 0h1024v800H0z"/></clipPath><mask id="k"><g filter="url(#a)"><path d="M0 0h16v16H0z" fill-opacity=".05"/></g></mask><clipPath id="j"><path d="M0 0h1024v800H0z"/></clipPath><mask id="m"><g filter="url(#a)"><path d="M0 0h16v16H0z" fill-opacity=".05"/></g></mask><clipPath id="l"><path d="M0 0h1024v800H0z"/></clipPath><mask id="o"><g filter="url(#a)"><path d="M0 0h16v16H0z" fill-opacity=".05"/></g></mask><clipPath id="n"><path d="M0 0h1024v800H0z"/></clipPath><mask id="q"><g filter="url(#a)"><path d="M0 0h16v16H0z" fill-opacity=".3"/></g></mask><clipPath id="p"><path d="M0 0h1024v800H0z"/></clipPath><mask id="s"><g filter="url(#a)"><path d="M0 0h16v16H0z" fill-opacity=".5"/></g></mask><clipPath id="r"><path d="M0 0h1024v800H0z"/></clipPath><mask id="u"><g filter="url(#a)"><path d="M0 0h16v16H0z" fill-opacity=".4"/></g></mask><clipPath id="t"><path d="M0 0h1024v800H0z"/></clipPath><mask id="w"><g filter="url(#a)"><path d="M0 0h16v16H0z" fill-opacity=".4"/></g></mask><clipPath id="v"><path d="M0 0h1024v800H0z"/></clipPath><mask id="y"><g filter="url(#a)"><path d="M0 0h16v16H0z" fill-opacity=".5"/></g></mask><clipPath id="x"><path d="M0 0h1024v800H0z"/></clipPath><mask id="A"><g filter="url(#a)"><path d="M0 0h16v16H0z" fill-opacity=".5"/></g></mask><clipPath id="z"><path d="M0 0h1024v800H0z"/></clipPath><g clip-path="url(#b)" mask="url(#c)" transform="translate(-20 -200)"><path d="M562.46 212.059h10.45c-1.183.492-1.297 2.46 0 3h-10.45zm0 0" fill="#2e3436"/></g><g clip-path="url(#d)" mask="url(#e)" transform="translate(-20 -200)"><path d="M16 632h1v1h-1zm0 0" fill="#2e3436" fill-rule="evenodd"/></g><g clip-path="url(#f)" mask="url(#g)" transform="translate(-20 -200)"><path d="M17 631h1v1h-1zm0 0" fill="#2e3436" fill-rule="evenodd"/></g><g clip-path="url(#h)" mask="url(#i)" transform="translate(-20 -200)"><path d="M18 634h1v1h-1zm0 0" fill="#2e3436" fill-rule="evenodd"/></g><g clip-path="url(#j)" mask="url(#k)" transform="translate(-20 -200)"><path d="M16 634h1v1h-1zm0 0" fill="#2e3436" fill-rule="evenodd"/></g><g clip-path="url(#l)" mask="url(#m)" transform="translate(-20 -200)"><path d="M17 635h1v1h-1zm0 0" fill="#2e3436" fill-rule="evenodd"/></g><g clip-path="url(#n)" mask="url(#o)" transform="translate(-20 -200)"><path d="M19 635h1v1h-1zm0 0" fill="#2e3436" fill-rule="evenodd"/></g><g clip-path="url(#p)" mask="url(#q)" transform="translate(-20 -200)"><path d="M136 660v7h7v-7zm0 0" fill="#2e3436"/></g><g clip-path="url(#r)" mask="url(#s)" transform="translate(-20 -200)"><path d="M199 642h3v12h-3zm0 0" fill="#2e3436"/></g><path d="M6.957 3.016c-.102.004-.2.023-.293.054a1.271 1.271 0 0 0-.18.086.745.745 0 0 0-.082.059.982.982 0 0 0-.394.672C6.004 3.926 6 3.96 6 4v8.383l-2.55-1.278a.998.998 0 0 0-1.302.368.998.998 0 0 0 .254 1.328l3.977 2.98.02.02c.011.008.019.011.03.02l.048.03c.011.008.023.012.035.02a.426.426 0 0 1 .043.024c.02.007.039.015.054.023a.27.27 0 0 0 .04.016l.062.023c.008.004.02.004.031.008a1.028 1.028 0 0 0 .106.023c.011 0 .02.004.027.004.027.004.055.004.082.008H12s.457.016.95-.23c.488-.247 1.05-.938 1.05-1.77v-4c0-.46-.313-.86-.758-.969l-4-1A.842.842 0 0 0 9 8H8V4c0-.102-.02-.2-.05-.293a.868.868 0 0 0-.196-.348.997.997 0 0 0-.227-.195c-.027-.016-.054-.031-.086-.047a.674.674 0 0 0-.093-.039c-.032-.012-.063-.023-.094-.031l-.098-.024c-.066-.007-.133-.011-.199-.007zm0 0" fill="#2e3436" fill-rule="evenodd"/><path d="M7 0C4.8 0 3 1.8 3 4c0 1.465.813 2.742 2 3.438V4c0-1.09.91-2 2-2s2 .91 2 2v3c.082 0 .164.008.242.031l.254.063C10.406 6.359 11 5.25 11 4c0-2.2-1.805-4-4-4zm0 0" fill="#2e3436" fill-opacity=".35"/><g clip-path="url(#t)" mask="url(#u)" transform="translate(-20 -200)"><path d="M209.5 144.16c.277 0 .5.223.5.5v1c0 .278-.223.5-.5.5s-.5-.222-.5-.5v-1c0-.277.223-.5.5-.5zm0 0" fill="#2e3436"/></g><g clip-path="url(#v)" mask="url(#w)" transform="translate(-20 -200)"><path d="M206.5 144.16c.277 0 .5.223.5.5v1c0 .278-.223.5-.5.5s-.5-.222-.5-.5v-1c0-.277.223-.5.5-.5zm0 0" fill="#2e3436"/></g><g clip-path="url(#x)" mask="url(#y)" transform="translate(-20 -200)"><path d="M229.5 143.16c-.547 0-1 .457-1 1 0 .547.453 1 1 1s1-.453 1-1c0-.543-.453-1-1-1zm0 0" fill="#2e3436"/></g><g clip-path="url(#z)" mask="url(#A)" transform="translate(-20 -200)"><path d="M226.453 143.16a.962.962 0 0 0-.953.953v.094c0 .52.434.953.953.953h.094c.52 0 .953-.433.953-.953v-.094a.962.962 0 0 0-.953-.953zm0 0" fill="#2e3436"/></g></svg>