<svg height="16" width="16" xmlns="http://www.w3.org/2000/svg"><filter id="a" height="100%" width="100%" x="0%" y="0%"><feColorMatrix in="SourceGraphic" values="0 0 0 0 1 0 0 0 0 1 0 0 0 0 1 0 0 0 1 0"/></filter><mask id="c"><g filter="url(#a)"><path d="M0 0h16v16H0z" fill-opacity=".3"/></g></mask><clipPath id="b"><path d="M0 0h1024v800H0z"/></clipPath><mask id="e"><g filter="url(#a)"><path d="M0 0h16v16H0z" fill-opacity=".05"/></g></mask><clipPath id="d"><path d="M0 0h1024v800H0z"/></clipPath><mask id="g"><g filter="url(#a)"><path d="M0 0h16v16H0z" fill-opacity=".05"/></g></mask><clipPath id="f"><path d="M0 0h1024v800H0z"/></clipPath><mask id="i"><g filter="url(#a)"><path d="M0 0h16v16H0z" fill-opacity=".05"/></g></mask><clipPath id="h"><path d="M0 0h1024v800H0z"/></clipPath><mask id="k"><g filter="url(#a)"><path d="M0 0h16v16H0z" fill-opacity=".05"/></g></mask><clipPath id="j"><path d="M0 0h1024v800H0z"/></clipPath><mask id="m"><g filter="url(#a)"><path d="M0 0h16v16H0z" fill-opacity=".05"/></g></mask><clipPath id="l"><path d="M0 0h1024v800H0z"/></clipPath><mask id="o"><g filter="url(#a)"><path d="M0 0h16v16H0z" fill-opacity=".05"/></g></mask><clipPath id="n"><path d="M0 0h1024v800H0z"/></clipPath><mask id="q"><g filter="url(#a)"><path d="M0 0h16v16H0z" fill-opacity=".3"/></g></mask><clipPath id="p"><path d="M0 0h1024v800H0z"/></clipPath><mask id="s"><g filter="url(#a)"><path d="M0 0h16v16H0z" fill-opacity=".5"/></g></mask><clipPath id="r"><path d="M0 0h1024v800H0z"/></clipPath><mask id="u"><g filter="url(#a)"><path d="M0 0h16v16H0z" fill-opacity=".4"/></g></mask><clipPath id="t"><path d="M0 0h1024v800H0z"/></clipPath><mask id="w"><g filter="url(#a)"><path d="M0 0h16v16H0z" fill-opacity=".4"/></g></mask><clipPath id="v"><path d="M0 0h1024v800H0z"/></clipPath><mask id="y"><g filter="url(#a)"><path d="M0 0h16v16H0z" fill-opacity=".5"/></g></mask><clipPath id="x"><path d="M0 0h1024v800H0z"/></clipPath><mask id="A"><g filter="url(#a)"><path d="M0 0h16v16H0z" fill-opacity=".5"/></g></mask><clipPath id="z"><path d="M0 0h1024v800H0z"/></clipPath><g clip-path="url(#b)" mask="url(#c)" transform="translate(-96 -700)"><path d="M562.46 212.059h10.45c-1.183.492-1.297 2.46 0 3h-10.45zm0 0" fill="#2e3436"/></g><g clip-path="url(#d)" mask="url(#e)" transform="translate(-96 -700)"><path d="M16 632h1v1h-1zm0 0" fill="#2e3436" fill-rule="evenodd"/></g><g clip-path="url(#f)" mask="url(#g)" transform="translate(-96 -700)"><path d="M17 631h1v1h-1zm0 0" fill="#2e3436" fill-rule="evenodd"/></g><g clip-path="url(#h)" mask="url(#i)" transform="translate(-96 -700)"><path d="M18 634h1v1h-1zm0 0" fill="#2e3436" fill-rule="evenodd"/></g><g clip-path="url(#j)" mask="url(#k)" transform="translate(-96 -700)"><path d="M16 634h1v1h-1zm0 0" fill="#2e3436" fill-rule="evenodd"/></g><g clip-path="url(#l)" mask="url(#m)" transform="translate(-96 -700)"><path d="M17 635h1v1h-1zm0 0" fill="#2e3436" fill-rule="evenodd"/></g><g clip-path="url(#n)" mask="url(#o)" transform="translate(-96 -700)"><path d="M19 635h1v1h-1zm0 0" fill="#2e3436" fill-rule="evenodd"/></g><g clip-path="url(#p)" mask="url(#q)" transform="translate(-96 -700)"><path d="M136 660v7h7v-7zm0 0" fill="#2e3436"/></g><g clip-path="url(#r)" mask="url(#s)" transform="translate(-96 -700)"><path d="M199 642h3v12h-3zm0 0" fill="#2e3436"/></g><g fill="#2e3436"><path d="M0 3c.496 0 1.238-.004 1.879-.016A1.478 1.478 0 0 1 1.922.961C1.188.98.52 1 0 1zM4.066.941c.266.274.434.645.434 1.059 0 .375-.14.71-.367.973 1.383.023 2.754.109 3.738.367.27.074.5.156.695.242a1.494 1.494 0 0 1 2.075-.937 3.36 3.36 0 0 0-.434-.418c-.531-.403-1.156-.641-1.828-.82C7.082 1.066 5.535.96 4.066.94zm.672 10.86c.004.07-.004.14.004.21.09.731.524 1.356 1.055 1.759.531.406 1.152.644 1.824.82 1.297.344 2.844.45 4.316.465a1.485 1.485 0 0 1-.066-2.032c-1.387-.02-2.758-.105-3.742-.367-.516-.133-.906-.316-1.121-.48-.024-.016-.024-.024-.043-.04A1.48 1.48 0 0 1 6 12.5c-.531 0-.996-.281-1.262-.7zm.614-2.149C5.547 9.56 5.766 9.5 6 9.5c.594 0 1.102.348 1.348.848.304-.461.71-.993 1.359-1.641 1.469-1.469 2.324-2.676 2.52-3.848-.27.387-.72.641-1.227.641-.39 0-.742-.152-1.008-.398-.273.535-.765 1.257-1.699 2.191-.863.863-1.512 1.633-1.941 2.36zm8.73 5.383C14.812 15.02 15.48 15 16 15v-2c-.496 0-1.238.004-1.875.016.23.265.375.605.375.984 0 .402-.16.766-.418 1.035zm0 0"/><path d="M11 14c0 1.098.902 2 2 2s2-.902 2-2-.902-2-2-2-2 .902-2 2zm1 0c0-.559.441-1 1-1s1 .441 1 1-.441 1-1 1-1-.441-1-1zM1 2c0 1.098.902 2 2 2s2-.902 2-2-.902-2-2-2-2 .902-2 2zm1 0c0-.559.441-1 1-1s1 .441 1 1-.441 1-1 1-1-.441-1-1zM4 11c0 1.098.902 2 2 2s2-.902 2-2-.902-2-2-2-2 .902-2 2zm1 0c0-.559.441-1 1-1s1 .441 1 1-.441 1-1 1-1-.441-1-1zM8 4c0 1.098.902 2 2 2s2-.902 2-2-.902-2-2-2-2 .902-2 2zm1 0c0-.559.441-1 1-1s1 .441 1 1-.441 1-1 1-1-.441-1-1zm0 0"/></g><g clip-path="url(#t)" mask="url(#u)" transform="translate(-96 -700)"><path d="M209.5 144.16c.277 0 .5.223.5.5v1c0 .278-.223.5-.5.5s-.5-.222-.5-.5v-1c0-.277.223-.5.5-.5zm0 0" fill="#2e3436"/></g><g clip-path="url(#v)" mask="url(#w)" transform="translate(-96 -700)"><path d="M206.5 144.16c.277 0 .5.223.5.5v1c0 .278-.223.5-.5.5s-.5-.222-.5-.5v-1c0-.277.223-.5.5-.5zm0 0" fill="#2e3436"/></g><g clip-path="url(#x)" mask="url(#y)" transform="translate(-96 -700)"><path d="M229.5 143.16c-.547 0-1 .457-1 1 0 .547.453 1 1 1s1-.453 1-1c0-.543-.453-1-1-1zm0 0" fill="#2e3436"/></g><g clip-path="url(#z)" mask="url(#A)" transform="translate(-96 -700)"><path d="M226.453 143.16a.962.962 0 0 0-.953.953v.094c0 .52.434.953.953.953h.094c.52 0 .953-.433.953-.953v-.094a.962.962 0 0 0-.953-.953zm0 0" fill="#2e3436"/></g></svg>