<svg height="16" width="16" xmlns="http://www.w3.org/2000/svg"><filter id="a" height="100%" width="100%" x="0%" y="0%"><feColorMatrix in="SourceGraphic" values="0 0 0 0 1 0 0 0 0 1 0 0 0 0 1 0 0 0 1 0"/></filter><mask id="c"><g filter="url(#a)"><path d="M0 0h16v16H0z" fill-opacity=".3"/></g></mask><clipPath id="b"><path d="M0 0h1024v800H0z"/></clipPath><mask id="e"><g filter="url(#a)"><path d="M0 0h16v16H0z" fill-opacity=".05"/></g></mask><clipPath id="d"><path d="M0 0h1024v800H0z"/></clipPath><mask id="g"><g filter="url(#a)"><path d="M0 0h16v16H0z" fill-opacity=".05"/></g></mask><clipPath id="f"><path d="M0 0h1024v800H0z"/></clipPath><mask id="i"><g filter="url(#a)"><path d="M0 0h16v16H0z" fill-opacity=".05"/></g></mask><clipPath id="h"><path d="M0 0h1024v800H0z"/></clipPath><mask id="k"><g filter="url(#a)"><path d="M0 0h16v16H0z" fill-opacity=".05"/></g></mask><clipPath id="j"><path d="M0 0h1024v800H0z"/></clipPath><mask id="m"><g filter="url(#a)"><path d="M0 0h16v16H0z" fill-opacity=".05"/></g></mask><clipPath id="l"><path d="M0 0h1024v800H0z"/></clipPath><mask id="o"><g filter="url(#a)"><path d="M0 0h16v16H0z" fill-opacity=".05"/></g></mask><clipPath id="n"><path d="M0 0h1024v800H0z"/></clipPath><mask id="q"><g filter="url(#a)"><path d="M0 0h16v16H0z" fill-opacity=".3"/></g></mask><clipPath id="p"><path d="M0 0h1024v800H0z"/></clipPath><mask id="s"><g filter="url(#a)"><path d="M0 0h16v16H0z" fill-opacity=".5"/></g></mask><clipPath id="r"><path d="M0 0h1024v800H0z"/></clipPath><mask id="u"><g filter="url(#a)"><path d="M0 0h16v16H0z" fill-opacity=".4"/></g></mask><clipPath id="t"><path d="M0 0h1024v800H0z"/></clipPath><mask id="w"><g filter="url(#a)"><path d="M0 0h16v16H0z" fill-opacity=".4"/></g></mask><clipPath id="v"><path d="M0 0h1024v800H0z"/></clipPath><mask id="y"><g filter="url(#a)"><path d="M0 0h16v16H0z" fill-opacity=".5"/></g></mask><clipPath id="x"><path d="M0 0h1024v800H0z"/></clipPath><mask id="A"><g filter="url(#a)"><path d="M0 0h16v16H0z" fill-opacity=".5"/></g></mask><clipPath id="z"><path d="M0 0h1024v800H0z"/></clipPath><g clip-path="url(#b)" mask="url(#c)" transform="translate(-76 -700)"><path d="M562.46 212.059h10.45c-1.183.492-1.297 2.46 0 3h-10.45zm0 0" fill="#2e3436"/></g><g clip-path="url(#d)" mask="url(#e)" transform="translate(-76 -700)"><path d="M16 632h1v1h-1zm0 0" fill="#2e3436" fill-rule="evenodd"/></g><g clip-path="url(#f)" mask="url(#g)" transform="translate(-76 -700)"><path d="M17 631h1v1h-1zm0 0" fill="#2e3436" fill-rule="evenodd"/></g><g clip-path="url(#h)" mask="url(#i)" transform="translate(-76 -700)"><path d="M18 634h1v1h-1zm0 0" fill="#2e3436" fill-rule="evenodd"/></g><g clip-path="url(#j)" mask="url(#k)" transform="translate(-76 -700)"><path d="M16 634h1v1h-1zm0 0" fill="#2e3436" fill-rule="evenodd"/></g><g clip-path="url(#l)" mask="url(#m)" transform="translate(-76 -700)"><path d="M17 635h1v1h-1zm0 0" fill="#2e3436" fill-rule="evenodd"/></g><g clip-path="url(#n)" mask="url(#o)" transform="translate(-76 -700)"><path d="M19 635h1v1h-1zm0 0" fill="#2e3436" fill-rule="evenodd"/></g><g clip-path="url(#p)" mask="url(#q)" transform="translate(-76 -700)"><path d="M136 660v7h7v-7zm0 0" fill="#2e3436"/></g><g clip-path="url(#r)" mask="url(#s)" transform="translate(-76 -700)"><path d="M199 642h3v12h-3zm0 0" fill="#2e3436"/></g><g fill="#2e3436"><path d="M13 0c0 .496.004 1.238.016 1.879a1.478 1.478 0 0 1 2.023.043C15.02 1.188 15 .52 15 0zm2.059 4.066A1.514 1.514 0 0 1 14 4.5c-.375 0-.71-.14-.973-.367-.023 1.383-.109 2.754-.367 3.738-.074.27-.156.5-.242.695a1.494 1.494 0 0 1 .937 2.075 3.36 3.36 0 0 0 .418-.434c.403-.531.641-1.156.82-1.828.34-1.297.446-2.844.466-4.313zm-10.86.672c-.07.004-.14-.004-.21.004-.731.09-1.356.524-1.759 1.055-.406.531-.644 1.152-.82 1.824-.344 1.297-.45 2.844-.465 4.316a1.485 1.485 0 0 1 2.032-.066c.02-1.387.105-2.758.367-3.742.133-.516.316-.906.48-1.121.016-.024.024-.024.04-.043A1.48 1.48 0 0 1 3.5 6c0-.531.281-.996.7-1.262zm2.149.614c.093.195.152.414.152.648 0 .594-.348 1.102-.848 1.348.461.304.993.71 1.641 1.359 1.469 1.469 2.676 2.324 3.848 2.52A1.493 1.493 0 0 1 10.5 10c0-.39.152-.742.398-1.008-.535-.273-1.257-.765-2.191-1.699-.863-.863-1.633-1.512-2.36-1.941zm-5.383 8.73C.98 14.812 1 15.48 1 16h2c0-.496-.004-1.238-.016-1.875-.265.23-.605.375-.984.375-.402 0-.766-.16-1.035-.418zm0 0"/><path d="M2 11c-1.098 0-2 .902-2 2s.902 2 2 2 2-.902 2-2-.902-2-2-2zm0 1c.559 0 1 .441 1 1s-.441 1-1 1-1-.441-1-1 .441-1 1-1zM14 1c-1.098 0-2 .902-2 2s.902 2 2 2 2-.902 2-2-.902-2-2-2zm0 1c.559 0 1 .441 1 1s-.441 1-1 1-1-.441-1-1 .441-1 1-1zM5 4c-1.098 0-2 .902-2 2s.902 2 2 2 2-.902 2-2-.902-2-2-2zm0 1c.559 0 1 .441 1 1s-.441 1-1 1-1-.441-1-1 .441-1 1-1zM12 8c-1.098 0-2 .902-2 2s.902 2 2 2 2-.902 2-2-.902-2-2-2zm0 1c.559 0 1 .441 1 1s-.441 1-1 1-1-.441-1-1 .441-1 1-1zm0 0"/></g><g clip-path="url(#t)" mask="url(#u)" transform="translate(-76 -700)"><path d="M209.5 144.16c.277 0 .5.223.5.5v1c0 .278-.223.5-.5.5s-.5-.222-.5-.5v-1c0-.277.223-.5.5-.5zm0 0" fill="#2e3436"/></g><g clip-path="url(#v)" mask="url(#w)" transform="translate(-76 -700)"><path d="M206.5 144.16c.277 0 .5.223.5.5v1c0 .278-.223.5-.5.5s-.5-.222-.5-.5v-1c0-.277.223-.5.5-.5zm0 0" fill="#2e3436"/></g><g clip-path="url(#x)" mask="url(#y)" transform="translate(-76 -700)"><path d="M229.5 143.16c-.547 0-1 .457-1 1 0 .547.453 1 1 1s1-.453 1-1c0-.543-.453-1-1-1zm0 0" fill="#2e3436"/></g><g clip-path="url(#z)" mask="url(#A)" transform="translate(-76 -700)"><path d="M226.453 143.16a.962.962 0 0 0-.953.953v.094c0 .52.434.953.953.953h.094c.52 0 .953-.433.953-.953v-.094a.962.962 0 0 0-.953-.953zm0 0" fill="#2e3436"/></g></svg>