<svg xmlns="http://www.w3.org/2000/svg" width="16" height="16.012"><path d="M64.253 468.006h.5s.25 0 .25.25v.75h.75a.25.25 0 0 1 .25.25v.5a.25.25 0 0 1-.25.25h-.75v.75a.25.25 0 0 1-.25.25h-.5a.258.258 0 0 1-.25-.25v-.75h-.75a.25.25 0 0 1-.25-.25v-.5c0-.138.137-.25.25-.25h.75v-.75a.25.25 0 0 1 .25-.25z" style="color:#000;display:inline;overflow:visible;vector-effect:none;fill:#2e3436;fill-opacity:1;stroke:none;stroke-width:2;stroke-linecap:round;stroke-miterlimit:4;stroke-dasharray:none;stroke-opacity:1;enable-background:new" transform="translate(-60 -457.994)"/><path d="M471.256-70.503a.75.75 0 0 1-.75.75.75.75 0 0 1-.75-.75.75.75 0 0 1 .75-.75.75.75 0 0 1 .75.75z" style="opacity:1;fill:#2e3436;fill-opacity:1;stroke:none;stroke-width:2;stroke-linecap:round;stroke-linejoin:round;stroke-miterlimit:4;stroke-dasharray:none;stroke-dashoffset:1;stroke-opacity:1" transform="rotate(90 198.997 -258.997)"/><path d="M61.004 465.006a1 1 0 0 0-1 1v7a1 1 0 0 0 1 1h12a1 1 0 0 0 1-1v-7a1 1 0 0 0-1-1zm1 2h10v5h-10z" style="color:#000;font-style:normal;font-variant:normal;font-weight:400;font-stretch:normal;font-size:medium;line-height:normal;font-family:sans-serif;font-variant-ligatures:normal;font-variant-position:normal;font-variant-caps:normal;font-variant-numeric:normal;font-variant-alternates:normal;font-feature-settings:normal;text-indent:0;text-align:start;text-decoration:none;text-decoration-line:none;text-decoration-style:solid;text-decoration-color:#000;letter-spacing:normal;word-spacing:normal;text-transform:none;writing-mode:lr-tb;direction:ltr;text-orientation:mixed;dominant-baseline:auto;baseline-shift:baseline;text-anchor:start;white-space:normal;shape-padding:0;clip-rule:nonzero;display:inline;overflow:visible;visibility:visible;opacity:1;isolation:auto;mix-blend-mode:normal;color-interpolation:sRGB;color-interpolation-filters:linearRGB;solid-color:#000;solid-opacity:1;vector-effect:none;fill:#2e3436;fill-opacity:1;fill-rule:nonzero;stroke:none;stroke-width:2;stroke-linecap:butt;stroke-linejoin:round;stroke-miterlimit:4;stroke-dasharray:none;stroke-dashoffset:0;stroke-opacity:1;color-rendering:auto;image-rendering:auto;shape-rendering:auto;text-rendering:auto;enable-background:new" transform="translate(-60 -457.994)"/><path d="M68.066 458.003c-.455.05-.884.221-1.25.5-.488.371-.813.955-.813 1.688a.52.52 0 0 0 .5.507.52.52 0 0 0 .5-.507c0-.45.172-.704.438-.907.265-.202.663-.3 1.062-.281.399.019.784.154 1.063.406.278.252.468.585.468 1.125 0 2.166 1.464 3.51 3 3.469.857-.022 1.689-.477 2.25-1.312l-.562-1c-.376.915-1.068 1.295-1.719 1.312-.96.025-1.969-.73-1.969-2.469 0-.792-.337-1.444-.812-1.875-.476-.43-1.081-.627-1.688-.656-.151-.007-.317-.016-.468 0zm6.937 1.969v.156l.781 1.375c.012-.04.021-.083.031-.125zm0 .375c-.006.106-.02.214-.031.312l.719 1.219c.023-.063.041-.122.062-.188zm-.062.5c-.014.09-.045.166-.063.25l.656 1.125c.03-.061.067-.124.094-.188zm-.094.437c-.024.09-.065.17-.094.25l.594 1.031c.04-.065.088-.118.125-.187z" style="color:#000;font-style:normal;font-variant:normal;font-weight:400;font-stretch:normal;font-size:medium;line-height:normal;font-family:Sans;-inkscape-font-specification:Sans;text-indent:0;text-align:start;text-decoration:none;text-decoration-line:none;letter-spacing:normal;word-spacing:normal;text-transform:none;writing-mode:lr-tb;direction:ltr;baseline-shift:baseline;text-anchor:start;display:inline;overflow:visible;visibility:visible;fill:#2e3436;fill-opacity:1;stroke:none;stroke-width:1;marker:none;enable-background:accumulate" transform="translate(-60 -457.994)"/><path d="M66.003 460.19h1v5.816h-1z" style="opacity:1;fill:#2e3436;fill-opacity:1;stroke:none;stroke-width:2;stroke-linecap:round;stroke-linejoin:round;stroke-miterlimit:4;stroke-dasharray:none;stroke-dashoffset:1;stroke-opacity:1" transform="translate(-60 -457.994)"/><path d="M470.256-68.503a.75.75 0 0 1-.75.75.75.75 0 0 1-.75-.75.75.75 0 0 1 .75-.75.75.75 0 0 1 .75.75z" style="opacity:1;fill:#2e3436;fill-opacity:1;stroke:none;stroke-width:2;stroke-linecap:round;stroke-linejoin:round;stroke-miterlimit:4;stroke-dasharray:none;stroke-dashoffset:1;stroke-opacity:1" transform="rotate(90 198.997 -258.997)"/></svg>