<svg height="16" width="16" xmlns="http://www.w3.org/2000/svg"><filter id="a" height="100%" width="100%" x="0%" y="0%"><feColorMatrix in="SourceGraphic" values="0 0 0 0 1 0 0 0 0 1 0 0 0 0 1 0 0 0 1 0"/></filter><mask id="c"><g filter="url(#a)"><path d="M0 0h16v16H0z" fill-opacity=".3"/></g></mask><clipPath id="b"><path d="M0 0h1024v800H0z"/></clipPath><mask id="e"><g filter="url(#a)"><path d="M0 0h16v16H0z" fill-opacity=".05"/></g></mask><clipPath id="d"><path d="M0 0h1024v800H0z"/></clipPath><mask id="g"><g filter="url(#a)"><path d="M0 0h16v16H0z" fill-opacity=".05"/></g></mask><clipPath id="f"><path d="M0 0h1024v800H0z"/></clipPath><mask id="i"><g filter="url(#a)"><path d="M0 0h16v16H0z" fill-opacity=".05"/></g></mask><clipPath id="h"><path d="M0 0h1024v800H0z"/></clipPath><mask id="k"><g filter="url(#a)"><path d="M0 0h16v16H0z" fill-opacity=".05"/></g></mask><clipPath id="j"><path d="M0 0h1024v800H0z"/></clipPath><mask id="m"><g filter="url(#a)"><path d="M0 0h16v16H0z" fill-opacity=".05"/></g></mask><clipPath id="l"><path d="M0 0h1024v800H0z"/></clipPath><mask id="o"><g filter="url(#a)"><path d="M0 0h16v16H0z" fill-opacity=".05"/></g></mask><clipPath id="n"><path d="M0 0h1024v800H0z"/></clipPath><mask id="q"><g filter="url(#a)"><path d="M0 0h16v16H0z" fill-opacity=".3"/></g></mask><clipPath id="p"><path d="M0 0h1024v800H0z"/></clipPath><mask id="s"><g filter="url(#a)"><path d="M0 0h16v16H0z" fill-opacity=".5"/></g></mask><clipPath id="r"><path d="M0 0h1024v800H0z"/></clipPath><mask id="u"><g filter="url(#a)"><path d="M0 0h16v16H0z" fill-opacity=".4"/></g></mask><clipPath id="t"><path d="M0 0h1024v800H0z"/></clipPath><mask id="w"><g filter="url(#a)"><path d="M0 0h16v16H0z" fill-opacity=".4"/></g></mask><clipPath id="v"><path d="M0 0h1024v800H0z"/></clipPath><mask id="y"><g filter="url(#a)"><path d="M0 0h16v16H0z" fill-opacity=".5"/></g></mask><clipPath id="x"><path d="M0 0h1024v800H0z"/></clipPath><mask id="A"><g filter="url(#a)"><path d="M0 0h16v16H0z" fill-opacity=".5"/></g></mask><clipPath id="z"><path d="M0 0h1024v800H0z"/></clipPath><g clip-path="url(#b)" mask="url(#c)" transform="translate(-300 -200)"><path d="M562.46 212.059h10.45c-1.183.492-1.297 2.46 0 3h-10.45zm0 0" fill="#2e3436"/></g><g clip-path="url(#d)" mask="url(#e)" transform="translate(-300 -200)"><path d="M16 632h1v1h-1zm0 0" fill="#2e3436" fill-rule="evenodd"/></g><g clip-path="url(#f)" mask="url(#g)" transform="translate(-300 -200)"><path d="M17 631h1v1h-1zm0 0" fill="#2e3436" fill-rule="evenodd"/></g><g clip-path="url(#h)" mask="url(#i)" transform="translate(-300 -200)"><path d="M18 634h1v1h-1zm0 0" fill="#2e3436" fill-rule="evenodd"/></g><g clip-path="url(#j)" mask="url(#k)" transform="translate(-300 -200)"><path d="M16 634h1v1h-1zm0 0" fill="#2e3436" fill-rule="evenodd"/></g><g clip-path="url(#l)" mask="url(#m)" transform="translate(-300 -200)"><path d="M17 635h1v1h-1zm0 0" fill="#2e3436" fill-rule="evenodd"/></g><g clip-path="url(#n)" mask="url(#o)" transform="translate(-300 -200)"><path d="M19 635h1v1h-1zm0 0" fill="#2e3436" fill-rule="evenodd"/></g><g clip-path="url(#p)" mask="url(#q)" transform="translate(-300 -200)"><path d="M136 660v7h7v-7zm0 0" fill="#2e3436"/></g><g clip-path="url(#r)" mask="url(#s)" transform="translate(-300 -200)"><path d="M199 642h3v12h-3zm0 0" fill="#2e3436"/></g><path d="M7.996 2a1 1 0 0 0-1 1v3h2V3c0-.555-.445-1-1-1zm2.977 0a1 1 0 0 0-1 1v4c0 .55.449 1 1 1 .55 0 1-.45 1-1V3a1 1 0 0 0-1-1zm-6 1c-.551 0-1 .45-1 1v1.031L4.938 6h1.035V4c0-.55-.45-1-1-1zm9 .5a1 1 0 0 0-1 1V7c0 .55.449 1 1 1 .55 0 1-.45 1-1V4.5a1 1 0 0 0-1-1zM5.937 7l1.72 1.719a.985.985 0 0 0 .316-.723h.004c0-.55-.45-.996-1-.996zm-3.96 0c-.551 0-1 .45-1 1v1.617c0 1.098.32 2.168.921 3.09l.114.172A4.728 4.728 0 0 0 5.949 15h5.867L6.813 9.996h-1.84v1c-.551 0-.996-.45-1-1v-1h1.84L3.816 7zm6.726 2c-.09.16-.203.3-.336.43l5.145 5.14A2.994 2.994 0 0 0 14.996 12v-1.93a.754.754 0 0 0 0-.132v-.02c0-.012 0-.012-.004-.016 0-.023-.004-.047-.008-.07 0 0 0-.008-.004-.012-.003-.023-.007-.047-.015-.07a.26.26 0 0 0-.024-.078.466.466 0 0 0-.03-.078s0-.008-.005-.012c-.011-.023-.02-.043-.031-.062-.004 0-.004-.012-.008-.012a.337.337 0 0 0-.039-.063c-.012-.023-.031-.047-.047-.066-.011-.016-.027-.031-.043-.047-.004-.012-.008-.012-.011-.016-.004 0-.008-.011-.012-.011a.312.312 0 0 0-.05-.051s-.005-.008-.009-.008c-.02-.016-.035-.031-.054-.043-.004 0-.008-.012-.012-.012a.509.509 0 0 0-.059-.039c-.004 0-.008-.007-.011-.007-.02-.016-.04-.024-.063-.036a1.343 1.343 0 0 0-.074-.035c-.004 0-.008-.008-.016-.008a.192.192 0 0 0-.066-.023h-.012a.187.187 0 0 0-.066-.02c-.024-.011-.047-.011-.07-.015h-.044c-.02 0-.043-.008-.066-.008A.08.08 0 0 0 14 9zm0 0" fill="#2e3436"/><path d="M1.531.469.47 1.53l14 14 1.062-1.062zm0 0" fill="#2e3436"/><g clip-path="url(#t)" mask="url(#u)" transform="translate(-300 -200)"><path d="M209.5 144.16c.277 0 .5.223.5.5v1c0 .278-.223.5-.5.5s-.5-.222-.5-.5v-1c0-.277.223-.5.5-.5zm0 0" fill="#2e3436"/></g><g clip-path="url(#v)" mask="url(#w)" transform="translate(-300 -200)"><path d="M206.5 144.16c.277 0 .5.223.5.5v1c0 .278-.223.5-.5.5s-.5-.222-.5-.5v-1c0-.277.223-.5.5-.5zm0 0" fill="#2e3436"/></g><g clip-path="url(#x)" mask="url(#y)" transform="translate(-300 -200)"><path d="M229.5 143.16c-.547 0-1 .457-1 1 0 .547.453 1 1 1s1-.453 1-1c0-.543-.453-1-1-1zm0 0" fill="#2e3436"/></g><g clip-path="url(#z)" mask="url(#A)" transform="translate(-300 -200)"><path d="M226.453 143.16a.962.962 0 0 0-.953.953v.094c0 .52.434.953.953.953h.094c.52 0 .953-.433.953-.953v-.094a.962.962 0 0 0-.953-.953zm0 0" fill="#2e3436"/></g></svg>