<svg height="16" width="16" xmlns="http://www.w3.org/2000/svg"><filter id="a" height="100%" width="100%" x="0%" y="0%"><feColorMatrix in="SourceGraphic" values="0 0 0 0 1 0 0 0 0 1 0 0 0 0 1 0 0 0 1 0"/></filter><mask id="c"><g filter="url(#a)"><path d="M0 0h16v16H0z" fill-opacity=".3"/></g></mask><clipPath id="b"><path d="M0 0h1024v800H0z"/></clipPath><mask id="e"><g filter="url(#a)"><path d="M0 0h16v16H0z" fill-opacity=".05"/></g></mask><clipPath id="d"><path d="M0 0h1024v800H0z"/></clipPath><mask id="g"><g filter="url(#a)"><path d="M0 0h16v16H0z" fill-opacity=".05"/></g></mask><clipPath id="f"><path d="M0 0h1024v800H0z"/></clipPath><mask id="i"><g filter="url(#a)"><path d="M0 0h16v16H0z" fill-opacity=".05"/></g></mask><clipPath id="h"><path d="M0 0h1024v800H0z"/></clipPath><mask id="k"><g filter="url(#a)"><path d="M0 0h16v16H0z" fill-opacity=".05"/></g></mask><clipPath id="j"><path d="M0 0h1024v800H0z"/></clipPath><mask id="m"><g filter="url(#a)"><path d="M0 0h16v16H0z" fill-opacity=".05"/></g></mask><clipPath id="l"><path d="M0 0h1024v800H0z"/></clipPath><mask id="o"><g filter="url(#a)"><path d="M0 0h16v16H0z" fill-opacity=".05"/></g></mask><clipPath id="n"><path d="M0 0h1024v800H0z"/></clipPath><mask id="q"><g filter="url(#a)"><path d="M0 0h16v16H0z" fill-opacity=".3"/></g></mask><clipPath id="p"><path d="M0 0h1024v800H0z"/></clipPath><mask id="s"><g filter="url(#a)"><path d="M0 0h16v16H0z" fill-opacity=".5"/></g></mask><clipPath id="r"><path d="M0 0h1024v800H0z"/></clipPath><mask id="u"><g filter="url(#a)"><path d="M0 0h16v16H0z" fill-opacity=".4"/></g></mask><clipPath id="t"><path d="M0 0h1024v800H0z"/></clipPath><mask id="w"><g filter="url(#a)"><path d="M0 0h16v16H0z" fill-opacity=".4"/></g></mask><clipPath id="v"><path d="M0 0h1024v800H0z"/></clipPath><mask id="y"><g filter="url(#a)"><path d="M0 0h16v16H0z" fill-opacity=".5"/></g></mask><clipPath id="x"><path d="M0 0h1024v800H0z"/></clipPath><mask id="A"><g filter="url(#a)"><path d="M0 0h16v16H0z" fill-opacity=".5"/></g></mask><clipPath id="z"><path d="M0 0h1024v800H0z"/></clipPath><g clip-path="url(#b)" mask="url(#c)" transform="translate(-280 -200)"><path d="M562.46 212.059h10.45c-1.183.492-1.297 2.46 0 3h-10.45zm0 0" fill="#2e3436"/></g><g clip-path="url(#d)" mask="url(#e)" transform="translate(-280 -200)"><path d="M16 632h1v1h-1zm0 0" fill="#2e3436" fill-rule="evenodd"/></g><g clip-path="url(#f)" mask="url(#g)" transform="translate(-280 -200)"><path d="M17 631h1v1h-1zm0 0" fill="#2e3436" fill-rule="evenodd"/></g><g clip-path="url(#h)" mask="url(#i)" transform="translate(-280 -200)"><path d="M18 634h1v1h-1zm0 0" fill="#2e3436" fill-rule="evenodd"/></g><g clip-path="url(#j)" mask="url(#k)" transform="translate(-280 -200)"><path d="M16 634h1v1h-1zm0 0" fill="#2e3436" fill-rule="evenodd"/></g><g clip-path="url(#l)" mask="url(#m)" transform="translate(-280 -200)"><path d="M17 635h1v1h-1zm0 0" fill="#2e3436" fill-rule="evenodd"/></g><g clip-path="url(#n)" mask="url(#o)" transform="translate(-280 -200)"><path d="M19 635h1v1h-1zm0 0" fill="#2e3436" fill-rule="evenodd"/></g><g clip-path="url(#p)" mask="url(#q)" transform="translate(-280 -200)"><path d="M136 660v7h7v-7zm0 0" fill="#2e3436"/></g><g clip-path="url(#r)" mask="url(#s)" transform="translate(-280 -200)"><path d="M199 642h3v12h-3zm0 0" fill="#2e3436"/></g><path d="M1.977 7c-.551 0-1 .45-1 1v1.617c0 1.098.32 2.168.921 3.086l.114.172A4.722 4.722 0 0 0 5.949 15H12c1.645 0 3-1.355 3-3V9.914c0-.008-.004-.008 0-.016 0-.023-.012-.043-.012-.066v-.016c0-.023-.008-.043-.015-.066-.012-.027-.016-.055-.024-.082a.601.601 0 0 0-.031-.074s0-.012-.008-.016c-.012-.02-.02-.039-.031-.062 0 0 0-.008-.012-.012-.012-.02-.023-.04-.039-.059-.015-.023-.031-.047-.047-.066-.015-.016-.027-.035-.043-.05 0-.009-.008-.009-.011-.017l-.012-.007a.312.312 0 0 0-.05-.051l-.013-.008a.295.295 0 0 0-.054-.043s-.008-.012-.012-.012a.509.509 0 0 0-.059-.039s-.007-.011-.011-.011c-.02-.012-.04-.02-.063-.032s-.047-.023-.074-.035c-.012 0-.012-.008-.016-.008-.02-.011-.043-.02-.066-.027h-.012a.33.33 0 0 0-.066-.016c-.024-.011-.047-.011-.067-.015h-.047c-.023 0-.042-.008-.066-.008H8.703a1.995 1.995 0 0 1-1.73.996h-2v1c-.551 0-1-.45-1-1v-1h3a.994.994 0 0 0 .304-.047c.028-.008.055-.02.078-.027.29-.121.508-.371.586-.676.012-.027.012-.055.02-.082A.996.996 0 0 0 6.973 7zM8 2c-.555 0-1 .445-1 1v2.996h2V3a1 1 0 0 0-1-1zm2.973-.004c-.551 0-1 .45-1 1V7c0 .55.449 1 1 1 .55 0 1-.45 1-1V2.996c0-.55-.45-1-1-1zm3 1.5c-.551 0-1 .45-1 1V7c0 .55.449 1 1 1 .55 0 1-.45 1-1V4.496c0-.55-.45-1-1-1zm-9-.496c-.551 0-1 .45-1 1v1.996h2V4a1 1 0 0 0-1-1zm0 0" fill="#2e3436"/><g clip-path="url(#t)" mask="url(#u)" transform="translate(-280 -200)"><path d="M209.5 144.16c.277 0 .5.223.5.5v1c0 .278-.223.5-.5.5s-.5-.222-.5-.5v-1c0-.277.223-.5.5-.5zm0 0" fill="#2e3436"/></g><g clip-path="url(#v)" mask="url(#w)" transform="translate(-280 -200)"><path d="M206.5 144.16c.277 0 .5.223.5.5v1c0 .278-.223.5-.5.5s-.5-.222-.5-.5v-1c0-.277.223-.5.5-.5zm0 0" fill="#2e3436"/></g><g clip-path="url(#x)" mask="url(#y)" transform="translate(-280 -200)"><path d="M229.5 143.16c-.547 0-1 .457-1 1 0 .547.453 1 1 1s1-.453 1-1c0-.543-.453-1-1-1zm0 0" fill="#2e3436"/></g><g clip-path="url(#z)" mask="url(#A)" transform="translate(-280 -200)"><path d="M226.453 143.16a.962.962 0 0 0-.953.953v.094c0 .52.434.953.953.953h.094c.52 0 .953-.433.953-.953v-.094a.962.962 0 0 0-.953-.953zm0 0" fill="#2e3436"/></g></svg>