<svg xmlns="http://www.w3.org/2000/svg" width="16" height="16"><g fill="#2e3436"><path d="M1.531.469.47 1.53l14 14 1.062-1.062z"/><path d="M220 228c-1.662 0-3 1.338-3 3v1.645l5.283 5.283c.44-.522.717-1.188.717-1.928v-5c0-1.662-1.338-3-3-3zm-6 6v2.01c0 2.966 2.165 5.424 5 5.9V244h2v-2.09a5.955 5.955 0 0 0 1.809-.629l-1.112-1.111c-.523.21-1.093.33-1.697.33-2.507 0-4.5-1.99-4.5-4.49V234zm10.5 0v2.01a4.458 4.458 0 0 1-1.148 2.986l1.052 1.053a5.931 5.931 0 0 0 1.596-4.04V234zm-7.5 1.473V236c0 1.662 1.338 3 3 3 .164 0 .322-.024.479-.049z" style="line-height:normal;font-variant-ligatures:normal;font-variant-position:normal;font-variant-caps:normal;font-variant-numeric:normal;font-variant-alternates:normal;font-feature-settings:normal;text-indent:0;text-align:start;text-decoration-line:none;text-decoration-style:solid;text-decoration-color:#000;text-transform:none;text-orientation:mixed;white-space:normal;shape-padding:0;isolation:auto;mix-blend-mode:normal;solid-color:#000;solid-opacity:1" color="#000" font-weight="400" font-family="sans-serif" overflow="visible" transform="translate(-212 -228)"/></g></svg>