<svg xmlns="http://www.w3.org/2000/svg" width="16" height="16"><g fill="#2e3436"><path d="M180-32c-1.662 0-3 1.338-3 3v5a2.993 2.993 0 0 0 5 2.225V-22h.225c.477-.53.775-1.227.775-2v-5c0-1.662-1.338-3-3-3zm0 2c.554 0 1 .446 1 1v5c0 .554-.446 1-1 1s-1-.446-1-1v-5c0-.554.446-1 1-1zm-6 4v2.01c0 2.966 2.165 5.424 5 5.9V-16h2v-2.09a5.981 5.981 0 0 0 1-.262v-1.627a4.502 4.502 0 0 1-2 .479c-2.507 0-4.5-1.99-4.5-4.49V-26zm10.5 0v2.01c0 .72-.182 1.39-.479 1.99h1.63c.22-.624.349-1.29.349-1.99V-26z" style="line-height:normal;font-variant-ligatures:normal;font-variant-position:normal;font-variant-caps:normal;font-variant-numeric:normal;font-variant-alternates:normal;font-feature-settings:normal;text-indent:0;text-align:start;text-decoration-line:none;text-decoration-style:solid;text-decoration-color:#000;text-transform:none;text-orientation:mixed;white-space:normal;shape-padding:0;isolation:auto;mix-blend-mode:normal;solid-color:#000;solid-opacity:1" color="#000" font-weight="400" font-family="sans-serif" overflow="visible" opacity=".35" transform="translate(-172 32)"/><path d="M183-21h1.375l1.125 1.094L186.594-21H188v1.469l-1.094 1.062L188-17.406V-16h-1.438l-1.062-1.063L184.437-16H183v-1.406l1.063-1.063L183-19.53z" style="marker:none" color="#bebebe" overflow="visible" transform="translate(-172 32)"/></g></svg>