<svg xmlns="http://www.w3.org/2000/svg" width="16" height="16"><g fill="#2e3436"><path d="M119-19v3h2v-3z" style="line-height:normal;font-variant-ligatures:normal;font-variant-position:normal;font-variant-caps:normal;font-variant-numeric:normal;font-variant-alternates:normal;font-feature-settings:normal;text-indent:0;text-align:start;text-decoration-line:none;text-decoration-style:solid;text-decoration-color:#000;text-transform:none;text-orientation:mixed;white-space:normal;shape-padding:0;isolation:auto;mix-blend-mode:normal;solid-color:#000;solid-opacity:1" color="#000" font-weight="400" font-family="sans-serif" overflow="visible" transform="translate(-112 32)"/><path d="M8 0c1.662 0 3 1.338 3 3v5c0 1.662-1.338 3-3 3S5 9.662 5 8V3c0-1.662 1.338-3 3-3z"/><path d="M114-26v2.01c0 3.306 2.69 5.99 6 5.99s6-2.684 6-5.99V-26h-1.5v2.01c0 2.5-1.993 4.49-4.5 4.49-2.507 0-4.5-1.99-4.5-4.49V-26z" style="line-height:normal;font-variant-ligatures:normal;font-variant-position:normal;font-variant-caps:normal;font-variant-numeric:normal;font-variant-alternates:normal;font-feature-settings:normal;text-indent:0;text-align:start;text-decoration-line:none;text-decoration-style:solid;text-decoration-color:#000;text-transform:none;text-orientation:mixed;white-space:normal;shape-padding:0;isolation:auto;mix-blend-mode:normal;solid-color:#000;solid-opacity:1" color="#000" font-weight="400" font-family="sans-serif" overflow="visible" transform="translate(-112 32)"/></g></svg>