<svg xmlns="http://www.w3.org/2000/svg" width="16" height="16"><g fill="#2e3436"><path d="M220 248c-1.662 0-3 1.338-3 3v4h6v-4c0-1.662-1.338-3-3-3zm-6 6v1h1.5v-1zm10.5 0v1h1.5v-1zm-8.953 6a5.994 5.994 0 0 0 3.453 1.91V264h2v-2.09a5.994 5.994 0 0 0 3.453-1.91h-2.414c-.613.31-1.298.5-2.039.5-.741 0-1.426-.19-2.04-.5z" style="line-height:normal;font-variant-ligatures:normal;font-variant-position:normal;font-variant-caps:normal;font-variant-numeric:normal;font-variant-alternates:normal;font-feature-settings:normal;text-indent:0;text-align:start;text-decoration-line:none;text-decoration-style:solid;text-decoration-color:#000;text-transform:none;text-orientation:mixed;white-space:normal;shape-padding:0;isolation:auto;mix-blend-mode:normal;solid-color:#000;solid-opacity:1" color="#000" font-weight="400" font-family="sans-serif" overflow="visible" opacity=".35" transform="translate(-212 -248)"/><path d="M0 8h16v3H0z"/></g></svg>