<svg height="16" width="16" xmlns="http://www.w3.org/2000/svg"><filter id="a" height="100%" width="100%" x="0%" y="0%"><feColorMatrix in="SourceGraphic" values="0 0 0 0 1 0 0 0 0 1 0 0 0 0 1 0 0 0 1 0"/></filter><mask id="c"><g filter="url(#a)"><path d="M0 0h16v16H0z" fill-opacity=".3"/></g></mask><clipPath id="b"><path d="M0 0h1024v800H0z"/></clipPath><mask id="e"><g filter="url(#a)"><path d="M0 0h16v16H0z" fill-opacity=".05"/></g></mask><clipPath id="d"><path d="M0 0h1024v800H0z"/></clipPath><mask id="g"><g filter="url(#a)"><path d="M0 0h16v16H0z" fill-opacity=".05"/></g></mask><clipPath id="f"><path d="M0 0h1024v800H0z"/></clipPath><mask id="i"><g filter="url(#a)"><path d="M0 0h16v16H0z" fill-opacity=".05"/></g></mask><clipPath id="h"><path d="M0 0h1024v800H0z"/></clipPath><mask id="k"><g filter="url(#a)"><path d="M0 0h16v16H0z" fill-opacity=".05"/></g></mask><clipPath id="j"><path d="M0 0h1024v800H0z"/></clipPath><mask id="m"><g filter="url(#a)"><path d="M0 0h16v16H0z" fill-opacity=".05"/></g></mask><clipPath id="l"><path d="M0 0h1024v800H0z"/></clipPath><mask id="o"><g filter="url(#a)"><path d="M0 0h16v16H0z" fill-opacity=".05"/></g></mask><clipPath id="n"><path d="M0 0h1024v800H0z"/></clipPath><mask id="q"><g filter="url(#a)"><path d="M0 0h16v16H0z" fill-opacity=".3"/></g></mask><clipPath id="p"><path d="M0 0h1024v800H0z"/></clipPath><mask id="s"><g filter="url(#a)"><path d="M0 0h16v16H0z" fill-opacity=".5"/></g></mask><clipPath id="r"><path d="M0 0h1024v800H0z"/></clipPath><mask id="u"><g filter="url(#a)"><path d="M0 0h16v16H0z" fill-opacity=".4"/></g></mask><clipPath id="t"><path d="M0 0h1024v800H0z"/></clipPath><mask id="w"><g filter="url(#a)"><path d="M0 0h16v16H0z" fill-opacity=".4"/></g></mask><clipPath id="v"><path d="M0 0h1024v800H0z"/></clipPath><mask id="y"><g filter="url(#a)"><path d="M0 0h16v16H0z" fill-opacity=".5"/></g></mask><clipPath id="x"><path d="M0 0h1024v800H0z"/></clipPath><mask id="A"><g filter="url(#a)"><path d="M0 0h16v16H0z" fill-opacity=".5"/></g></mask><clipPath id="z"><path d="M0 0h1024v800H0z"/></clipPath><g clip-path="url(#b)" mask="url(#c)" transform="translate(-180 -296)"><path d="M562.46 212.059h10.45c-1.183.492-1.297 2.46 0 3h-10.45zm0 0" fill="#2e3436"/></g><g clip-path="url(#d)" mask="url(#e)" transform="translate(-180 -296)"><path d="M16 632h1v1h-1zm0 0" fill="#2e3436" fill-rule="evenodd"/></g><g clip-path="url(#f)" mask="url(#g)" transform="translate(-180 -296)"><path d="M17 631h1v1h-1zm0 0" fill="#2e3436" fill-rule="evenodd"/></g><g clip-path="url(#h)" mask="url(#i)" transform="translate(-180 -296)"><path d="M18 634h1v1h-1zm0 0" fill="#2e3436" fill-rule="evenodd"/></g><g clip-path="url(#j)" mask="url(#k)" transform="translate(-180 -296)"><path d="M16 634h1v1h-1zm0 0" fill="#2e3436" fill-rule="evenodd"/></g><g clip-path="url(#l)" mask="url(#m)" transform="translate(-180 -296)"><path d="M17 635h1v1h-1zm0 0" fill="#2e3436" fill-rule="evenodd"/></g><g clip-path="url(#n)" mask="url(#o)" transform="translate(-180 -296)"><path d="M19 635h1v1h-1zm0 0" fill="#2e3436" fill-rule="evenodd"/></g><g clip-path="url(#p)" mask="url(#q)" transform="translate(-180 -296)"><path d="M136 660v7h7v-7zm0 0" fill="#2e3436"/></g><g clip-path="url(#r)" mask="url(#s)" transform="translate(-180 -296)"><path d="M199 642h3v12h-3zm0 0" fill="#2e3436"/></g><path d="M8.063 0a2.54 2.54 0 0 0-1.25.5C6.324.871 6 1.453 6 2.188c-.004.265.234.507.5.507s.504-.242.5-.507c0-.45.172-.704.438-.907S8.101.981 8.5 1s.785.152 1.063.406.468.586.468 1.125c0 2.164 1.465 3.508 3 3.469.856-.023 1.688-.477 2.25-1.313l-.562-1C14.344 4.603 13.652 4.984 13 5c-.96.023-1.969-.73-1.969-2.469 0-.793-.336-1.445-.812-1.875S9.137.027 8.53 0a3.13 3.13 0 0 0-.469 0zM15 1.969v.156l.781 1.375c.012-.04.02-.082.031-.125zm0 .375c-.008.105-.02.215-.031.312l.719 1.219c.023-.063.042-.121.062-.188zm-.063.5c-.015.09-.042.168-.062.25l.656 1.125c.028-.063.067-.125.094-.188zm-.093.437c-.024.09-.067.168-.094.25l.594 1.031c.039-.066.09-.117.125-.187zm0 0" fill="#2e3436"/><path d="M5 4c-1.11 0-2 .89-2 2v2h3V4zm2 0v4h3V6c0-1.11-.89-2-2-2zM3 9v2.25C3 13.465 4.563 15 6.5 15s3.5-1.535 3.5-3.75V9zm0 0" fill="#2e3436"/><g clip-path="url(#t)" mask="url(#u)" transform="translate(-180 -296)"><path d="M209.5 144.16c.277 0 .5.223.5.5v1c0 .278-.223.5-.5.5s-.5-.222-.5-.5v-1c0-.277.223-.5.5-.5zm0 0" fill="#2e3436"/></g><g clip-path="url(#v)" mask="url(#w)" transform="translate(-180 -296)"><path d="M206.5 144.16c.277 0 .5.223.5.5v1c0 .278-.223.5-.5.5s-.5-.222-.5-.5v-1c0-.277.223-.5.5-.5zm0 0" fill="#2e3436"/></g><g clip-path="url(#x)" mask="url(#y)" transform="translate(-180 -296)"><path d="M229.5 143.16c-.547 0-1 .457-1 1 0 .547.453 1 1 1s1-.453 1-1c0-.543-.453-1-1-1zm0 0" fill="#2e3436"/></g><g clip-path="url(#z)" mask="url(#A)" transform="translate(-180 -296)"><path d="M226.453 143.16a.962.962 0 0 0-.953.953v.094c0 .52.434.953.953.953h.094c.52 0 .953-.433.953-.953v-.094a.962.962 0 0 0-.953-.953zm0 0" fill="#2e3436"/></g></svg>