<svg height="16" width="16" xmlns="http://www.w3.org/2000/svg"><g fill="#2e3436"><path d="M8 2a3 3 0 1 0 .002 6.002A3 3 0 0 0 8 2zm0 2c.55 0 1 .45 1 1s-.45 1-1 1-1-.45-1-1 .45-1 1-1zM13 9v3.27A2 2 0 1 0 12 16c1.105 0 2-.895 2-2v-3h2V9zm0 0"/><path d="M6 9s-.957-.016-1.95.48C3.063 9.977 2 11.168 2 13v1c-.004.36.184.695.496.879.313.18.695.18 1.008 0 .312-.184.5-.52.496-.879v-1c0-1.168.437-1.477.95-1.73A2.823 2.823 0 0 1 6 11h5c.36.004.695-.184.879-.496a1.01 1.01 0 0 0 0-1.008c-.184-.312-.52-.5-.879-.496zm0 0" fill-rule="evenodd"/></g></svg>