<svg xmlns="http://www.w3.org/2000/svg" width="16" height="16"><g fill="#2e3436"><path d="M6.27 12A2 2 0 0 0 6 13a2 2 0 0 0 2 2 2 2 0 0 0 2-2 2 2 0 0 0-.271-1z" opacity=".35"/><path d="M180 250c-2.814 0-5.172 1-7 2.586V254h1.48c1.52-1.264 3.22-2 5.52-2 2.3 0 4 .78 5.52 2H187v-1.381c-1.64-1.466-4.186-2.619-7-2.619z" style="marker:none" color="#000" overflow="visible" opacity=".35" transform="translate(-172 -248)"/><path d="M180 253c-2.167 0-4.02.739-5 2h10c-.995-1.223-2.873-2-5-2z" style="marker:none" color="#000" overflow="visible" opacity=".35" transform="translate(-172 -248)"/><path d="M0 8h16v3H0z"/></g></svg>