<svg xmlns="http://www.w3.org/2000/svg" height="16" style="enable-background:new" width="16"><path d="M196.957 108.602s-.54 1.316-.164 2.23l.422 1.023c-.53.358-.986.811-1.346 1.338l-1.021-.425c-.91-.386-2.23.152-2.23.152s.548 1.313 1.46 1.693l1.018.424A4.964 4.964 0 0 0 195 116c0 .32.033.633.092.938l-1.022.42c-.916.37-1.468 1.685-1.468 1.685s1.316.54 2.23.164l1.023-.422c.357.529.812.984 1.338 1.344l-.427 1.023c-.38.912.154 2.23.154 2.23s1.315-.546 1.691-1.46l.426-1.018c.312.062.634.096.963.096.32 0 .633-.033.938-.092l.42 1.022c.37.916 1.683 1.468 1.683 1.468s.542-1.314.166-2.228l-.422-1.024a5.056 5.056 0 0 0 1.344-1.34l1.023.428c.91.386 2.23-.154 2.23-.154s-.548-1.31-1.46-1.691l-1.018-.426c.062-.312.096-.634.096-.963 0-.32-.033-.633-.092-.938l1.022-.42c.916-.37 1.468-1.683 1.468-1.683s-1.314-.542-2.228-.166l-1.024.422a5.056 5.056 0 0 0-1.34-1.344l.428-1.023c.386-.91-.154-2.23-.154-2.23s-1.31.548-1.691 1.46l-.426 1.018A4.964 4.964 0 0 0 200 111c-.32 0-.633.033-.938.092l-.42-1.022c-.37-.916-1.685-1.468-1.685-1.468zM197 113h2v6h-2zm4 0h2v6h-2z" style="color:#000;font-style:normal;font-variant:normal;font-weight:400;font-stretch:normal;font-size:medium;line-height:normal;font-family:sans-serif;font-variant-ligatures:normal;font-variant-position:normal;font-variant-caps:normal;font-variant-numeric:normal;font-variant-alternates:normal;font-feature-settings:normal;text-indent:0;text-align:start;text-decoration:none;text-decoration-line:none;text-decoration-style:solid;text-decoration-color:#000;letter-spacing:normal;word-spacing:normal;text-transform:none;writing-mode:lr-tb;direction:ltr;text-orientation:mixed;dominant-baseline:auto;baseline-shift:baseline;text-anchor:start;white-space:normal;shape-padding:0;clip-rule:nonzero;display:inline;overflow:visible;visibility:visible;isolation:auto;mix-blend-mode:normal;color-interpolation:sRGB;color-interpolation-filters:linearRGB;solid-color:#000;solid-opacity:1;vector-effect:none;fill:#2e3436;fill-opacity:1;fill-rule:nonzero;stroke:none;stroke-width:2;stroke-linecap:butt;stroke-linejoin:miter;stroke-miterlimit:4;stroke-dasharray:none;stroke-dashoffset:56;stroke-opacity:1;color-rendering:auto;image-rendering:auto;shape-rendering:auto;text-rendering:auto;enable-background:accumulate" transform="translate(-192 -108)"/></svg>