<svg height="16" width="16" xmlns="http://www.w3.org/2000/svg"><defs><clipPath clipPathUnits="userSpaceOnUse" id="a"><circle cx="280" cy="20" r="200" style="display:inline;opacity:1;fill:url(#radialGradient17193);fill-opacity:1;stroke:none;stroke-width:.0403508px;stroke-linecap:butt;stroke-linejoin:miter;stroke-miterlimit:4;stroke-dasharray:none;stroke-dashoffset:0;stroke-opacity:1;marker:none;marker-start:none;marker-mid:none;marker-end:none;paint-order:normal;enable-background:new"/></clipPath></defs><path d="M106.006-139v2.986h-2.574l.691.692a.492.492 0 0 1 .375-.178.5.5 0 0 1 .5.5.493.493 0 0 1-.178.375l.612.611H115c-1.155-2-5-4.986-8.994-4.986zm-3.725 3.25a.983.983 0 0 0-.336.736c0 .554.446 1 1 1h1.073zM101-133.014v1l1.5.014c.293 0 .49.197.49.5l.01 2a.5.5 0 1 0 1 0v-2c0-.66 1-.659 1 0v3a.499.499 0 1 0 1 0v-1c0-.677 1-.673 1 0 .003 1.685.014 3.65.014 3.943a.491.491 0 1 0 .984 0c0-.32.008-2.765.014-4.462l-2.994-2.995zm5.432 0 1.586 1.586v-.086c0-.248.228-.5.5-.5h.982c.26 0 .5.248.5.5v1a.499.499 0 1 0 1 0v-1c0-.266.221-.5.5-.5.267 0 .5.229.5.5a.499.499 0 1 0 1 0c.014-.262.266-.493.5-.5h1.5v-1z" style="color:#bebebe;visibility:visible;fill:#2e3436;fill-opacity:1;stroke:none;stroke-width:3;marker:none;stop-color:#000" transform="translate(-100 139.989)"/><path d="M101.793-139.83a1 1 0 0 0-.734.293 1 1 0 0 0 0 1.414l13 13a1 1 0 0 0 1.414 0 1 1 0 0 0 0-1.414l-13-13a1 1 0 0 0-.68-.293z" style="color:#bebebe;font-style:normal;font-variant:normal;font-weight:400;font-stretch:normal;font-size:medium;line-height:normal;font-family:sans-serif;font-variant-ligatures:normal;font-variant-position:normal;font-variant-caps:normal;font-variant-numeric:normal;font-variant-alternates:normal;font-variant-east-asian:normal;font-feature-settings:normal;font-variation-settings:normal;text-indent:0;text-align:start;text-decoration:none;text-decoration-line:none;text-decoration-style:solid;text-decoration-color:#000;letter-spacing:normal;word-spacing:normal;text-transform:none;writing-mode:lr-tb;direction:ltr;text-orientation:mixed;dominant-baseline:auto;baseline-shift:baseline;text-anchor:start;white-space:normal;shape-padding:0;shape-margin:0;inline-size:0;clip-rule:nonzero;display:inline;overflow:visible;visibility:visible;isolation:auto;mix-blend-mode:normal;color-interpolation:sRGB;color-interpolation-filters:linearRGB;solid-color:#000;solid-opacity:1;vector-effect:none;fill:#2e3436;fill-opacity:1;fill-rule:evenodd;stroke:none;stroke-width:2;stroke-linecap:round;stroke-linejoin:miter;stroke-miterlimit:4;stroke-dasharray:none;stroke-dashoffset:0;stroke-opacity:1;marker:none;color-rendering:auto;image-rendering:auto;shape-rendering:auto;text-rendering:auto;enable-background:accumulate;stop-color:#000;stop-opacity:1;opacity:1" transform="translate(-100 139.989)"/></svg>