<svg height="16" width="16" xmlns="http://www.w3.org/2000/svg"><g fill="#2e3436"><path d="M7.43 11.008h1.144a3.422 3.422 0 0 1 3.43 3.43v.8c0 .762-.762.762-.762.762H4.766s-.762 0-.762-.762v-.8a3.418 3.418 0 0 1 3.426-3.43zm0 0"/><path d="M8.004 3.004A4.993 4.993 0 0 0 4.68 4.266a5.01 5.01 0 0 0-.774 6.601c.149.23.414.36.688.34s.511-.187.625-.437.082-.543-.082-.762a3.487 3.487 0 0 1 .539-4.621 3.483 3.483 0 0 1 4.652 0 3.492 3.492 0 0 1 .543 4.62.75.75 0 1 0 1.227.86 5.005 5.005 0 0 0-.77-6.601 5 5 0 0 0-3.324-1.262zm0 0" fill-opacity=".35"/><path d="M8.004 6a2 2 0 1 1-2 2c0-1.105.894-2 2-2zm0 0"/><path d="M8.004.004a7.986 7.986 0 0 0-5.32 2.02 8.007 8.007 0 0 0-1.235 10.562c.149.23.414.363.688.34.273-.02.511-.188.625-.438s.082-.539-.082-.758a6.494 6.494 0 0 1 1.004-8.585 6.491 6.491 0 0 1 8.64 0 6.494 6.494 0 0 1 1.004 8.585.747.747 0 0 0 .543 1.196.74.74 0 0 0 .684-.34A8.007 8.007 0 0 0 13.32 2.023 7.97 7.97 0 0 0 8.004.003zm0 0" fill-opacity=".35"/></g></svg>