<svg height="16" width="16" xmlns="http://www.w3.org/2000/svg"><path d="M9.492 1c-1.277 0-2.312.973-2.457 2.219C6.711 3.098 6.38 3 6.012 3a2.992 2.992 0 0 0-2.985 3c0 .098.024.184.032.281A1.994 1.994 0 0 0 .043 8c0 1.105.89 2 1.988 2h.375c.164-.352.367-.68.653-.969l2.453-2.469 2.457 2.47c.285.284.465.62.62.968h.466l1.43-1.438L11.914 10h2.55c.824 0 1.492-.672 1.492-1.5S15.289 7 14.465 7c-.207 0-.414.05-.59.125.05-.203.09-.406.09-.625 0-1.23-.887-2.227-2.05-2.438a2.41 2.41 0 0 0 .062-.562c0-1.379-1.114-2.5-2.485-2.5zm0 0" fill="#2e3436"/><g fill="none" stroke="#2e3436" stroke-linecap="round"><path d="M6.914 12.871a2 2 0 1 1-2.828-2.828L5.5 8.629l1.414 1.414a2 2 0 0 1 0 2.828zM11.914 14.871a2 2 0 1 1-2.828-2.828l1.414-1.414 1.414 1.414a2 2 0 0 1 0 2.828zm0 0"/></g></svg>