<svg height="16" width="16" xmlns="http://www.w3.org/2000/svg"><g fill="#2e3436"><path d="M7.996 2.992C5.246 2.992 2.988 5.25 2.988 8s2.258 5.008 5.008 5.008S13 10.75 13 8s-2.254-5.008-5.004-5.008zM14 7c.137.71.113 1.371 0 2l2-1zM2 7a5.375 5.375 0 0 0 0 2L0 8zM9 14a5.375 5.375 0 0 1-2 0l1 2zM9 2a5.375 5.375 0 0 0-2 0L7.57.863 8 0zM4.465 12.95a5.404 5.404 0 0 1-1.414-1.415l-.707 2.121zM12.95 4.465a5.404 5.404 0 0 0-1.415-1.414l2.121-.707zM3.05 4.465A5.404 5.404 0 0 1 4.466 3.05l-2.121-.707zM11.535 12.95a5.404 5.404 0 0 0 1.414-1.415l.707 2.121zm0 0"/></g></svg>