<svg height="16" width="16" xmlns="http://www.w3.org/2000/svg"><g fill="#2e3436"><path d="M8 4.008c-2.195 0-4 1.805-4 4 0 2.191 1.805 4 4 4s4-1.809 4-4c0-2.195-1.805-4-4-4zM7.5 0h1c.277 0 .5.223.5.5v2c0 .277-.223.5-.5.5h-1a.498.498 0 0 1-.5-.5v-2c0-.277.223-.5.5-.5zM7.5 13h1c.277 0 .5.223.5.5v2c0 .277-.223.5-.5.5h-1a.498.498 0 0 1-.5-.5v-2c0-.277.223-.5.5-.5zM1.988 2.695l.707-.707a.5.5 0 0 1 .707 0l1.414 1.414a.5.5 0 0 1 0 .707l-.707.707a.5.5 0 0 1-.707 0L1.988 3.402a.5.5 0 0 1 0-.707zM11.184 11.89l.707-.706a.5.5 0 0 1 .707 0l1.414 1.414a.5.5 0 0 1 0 .707l-.707.707a.5.5 0 0 1-.707 0l-1.414-1.414a.5.5 0 0 1 0-.707zM2.695 14.012l-.707-.707a.5.5 0 0 1 0-.707l1.414-1.414a.5.5 0 0 1 .707 0l.707.707a.5.5 0 0 1 0 .707l-1.414 1.414a.5.5 0 0 1-.707 0zM11.89 4.816l-.706-.707a.5.5 0 0 1 0-.707l1.414-1.414a.5.5 0 0 1 .707 0l.707.707a.5.5 0 0 1 0 .707l-1.414 1.414a.5.5 0 0 1-.707 0zM16 7.5v1c0 .277-.223.5-.5.5h-2a.498.498 0 0 1-.5-.5v-1c0-.277.223-.5.5-.5h2c.277 0 .5.223.5.5zM3 7.5v1c0 .277-.223.5-.5.5h-2a.498.498 0 0 1-.5-.5v-1c0-.277.223-.5.5-.5h2c.277 0 .5.223.5.5zm0 0"/></g></svg>