<svg xmlns="http://www.w3.org/2000/svg" width="16" height="16"><path d="M1.5 4.989c.277 0 .5.223.5.5v1a.499.499 0 1 1-1 0v-1c0-.277.223-.5.5-.5zm2-1c.277 0 .5.223.5.5v3a.499.499 0 1 1-1 0v-3c0-.277.223-.5.5-.5zm2-3c.277 0 .5.223.5.5v8a.499.499 0 1 1-1 0v-8c0-.277.223-.5.5-.5zm8.506 5.144a.996.996 0 0 0-.998.998v.451a5.734 5.734 0 0 0-1.355.567l-.323-.322a.995.995 0 0 0-1.41 0l-.705.705a.995.995 0 0 0 0 1.41l.32.32a5.734 5.734 0 0 0-.56 1.358h-.453a.995.995 0 0 0-.998.996v.998c0 .552.445.996.998.996h.449a5.734 5.734 0 0 0 .123.379h3.09a3 3 0 0 1-.662-1.88 3 3 0 0 1 3-3 3 3 0 0 1 .478.044v-4.02zM7.5 3.989c.277 0 .5.223.5.5v3a.499.499 0 1 1-1 0v-3c0-.277.223-.5.5-.5zm2 1c.277 0 .5.223.5.5v1a.499.499 0 1 1-1 0v-1c0-.277.223-.5.5-.5z" style="marker:none" color="#bebebe" fill="#2e3436"/></svg>