<svg height="16" width="16" xmlns="http://www.w3.org/2000/svg"><filter id="a" height="100%" width="100%" x="0%" y="0%"><feColorMatrix in="SourceGraphic" values="0 0 0 0 1 0 0 0 0 1 0 0 0 0 1 0 0 0 1 0"/></filter><mask id="c"><g filter="url(#a)"><path d="M0 0h16v16H0z" fill-opacity=".3"/></g></mask><clipPath id="b"><path d="M0 0h1024v800H0z"/></clipPath><mask id="e"><g filter="url(#a)"><path d="M0 0h16v16H0z" fill-opacity=".05"/></g></mask><clipPath id="d"><path d="M0 0h1024v800H0z"/></clipPath><mask id="g"><g filter="url(#a)"><path d="M0 0h16v16H0z" fill-opacity=".05"/></g></mask><clipPath id="f"><path d="M0 0h1024v800H0z"/></clipPath><mask id="i"><g filter="url(#a)"><path d="M0 0h16v16H0z" fill-opacity=".05"/></g></mask><clipPath id="h"><path d="M0 0h1024v800H0z"/></clipPath><mask id="k"><g filter="url(#a)"><path d="M0 0h16v16H0z" fill-opacity=".05"/></g></mask><clipPath id="j"><path d="M0 0h1024v800H0z"/></clipPath><mask id="m"><g filter="url(#a)"><path d="M0 0h16v16H0z" fill-opacity=".05"/></g></mask><clipPath id="l"><path d="M0 0h1024v800H0z"/></clipPath><mask id="o"><g filter="url(#a)"><path d="M0 0h16v16H0z" fill-opacity=".05"/></g></mask><clipPath id="n"><path d="M0 0h1024v800H0z"/></clipPath><mask id="q"><g filter="url(#a)"><path d="M0 0h16v16H0z" fill-opacity=".3"/></g></mask><clipPath id="p"><path d="M0 0h1024v800H0z"/></clipPath><mask id="s"><g filter="url(#a)"><path d="M0 0h16v16H0z" fill-opacity=".5"/></g></mask><clipPath id="r"><path d="M0 0h1024v800H0z"/></clipPath><mask id="u"><g filter="url(#a)"><path d="M0 0h16v16H0z" fill-opacity=".4"/></g></mask><clipPath id="t"><path d="M0 0h1024v800H0z"/></clipPath><mask id="w"><g filter="url(#a)"><path d="M0 0h16v16H0z" fill-opacity=".4"/></g></mask><clipPath id="v"><path d="M0 0h1024v800H0z"/></clipPath><mask id="y"><g filter="url(#a)"><path d="M0 0h16v16H0z" fill-opacity=".5"/></g></mask><clipPath id="x"><path d="M0 0h1024v800H0z"/></clipPath><mask id="A"><g filter="url(#a)"><path d="M0 0h16v16H0z" fill-opacity=".5"/></g></mask><clipPath id="z"><path d="M0 0h1024v800H0z"/></clipPath><g clip-path="url(#b)" mask="url(#c)" transform="translate(-180 -316)"><path d="M562.46 212.059h10.45c-1.183.492-1.297 2.46 0 3h-10.45zm0 0" fill="#2e3436"/></g><g clip-path="url(#d)" mask="url(#e)" transform="translate(-180 -316)"><path d="M16 632h1v1h-1zm0 0" fill="#2e3436" fill-rule="evenodd"/></g><g clip-path="url(#f)" mask="url(#g)" transform="translate(-180 -316)"><path d="M17 631h1v1h-1zm0 0" fill="#2e3436" fill-rule="evenodd"/></g><g clip-path="url(#h)" mask="url(#i)" transform="translate(-180 -316)"><path d="M18 634h1v1h-1zm0 0" fill="#2e3436" fill-rule="evenodd"/></g><g clip-path="url(#j)" mask="url(#k)" transform="translate(-180 -316)"><path d="M16 634h1v1h-1zm0 0" fill="#2e3436" fill-rule="evenodd"/></g><g clip-path="url(#l)" mask="url(#m)" transform="translate(-180 -316)"><path d="M17 635h1v1h-1zm0 0" fill="#2e3436" fill-rule="evenodd"/></g><g clip-path="url(#n)" mask="url(#o)" transform="translate(-180 -316)"><path d="M19 635h1v1h-1zm0 0" fill="#2e3436" fill-rule="evenodd"/></g><g clip-path="url(#p)" mask="url(#q)" transform="translate(-180 -316)"><path d="M136 660v7h7v-7zm0 0" fill="#2e3436"/></g><g clip-path="url(#r)" mask="url(#s)" transform="translate(-180 -316)"><path d="M199 642h3v12h-3zm0 0" fill="#2e3436"/></g><path d="M5 0c-.55 0-1 .45-1 1a1.002 1.002 0 0 0 1.25.969L6.27 3H4C2.34 3 1 4.34 1 6v7c0 1.66 1.34 3 3 3h8c1.66 0 3-1.34 3-3V6c0-1.66-1.34-3-3-3H9.738l1.012-1.031c.078.02.156.031.238.031.551 0 1-.45 1-1s-.449-1-1-1a1.002 1.002 0 0 0-.96 1.277L8.343 2.988 7.676 3 5.96 1.266A.875.875 0 0 0 6 1c0-.55-.45-1-1-1zm-.5 4h2.758l.008.008L7.64 4H11.5S13 5 13 8s-1.5 4-1.5 4h-7S3 11 3 8s1.5-4 1.5-4zM11 14h1v1h-1zm0 0" fill="#2e3436"/><g clip-path="url(#t)" mask="url(#u)" transform="translate(-180 -316)"><path d="M209.5 144.16c.277 0 .5.223.5.5v1c0 .278-.223.5-.5.5s-.5-.222-.5-.5v-1c0-.277.223-.5.5-.5zm0 0" fill="#2e3436"/></g><g clip-path="url(#v)" mask="url(#w)" transform="translate(-180 -316)"><path d="M206.5 144.16c.277 0 .5.223.5.5v1c0 .278-.223.5-.5.5s-.5-.222-.5-.5v-1c0-.277.223-.5.5-.5zm0 0" fill="#2e3436"/></g><g clip-path="url(#x)" mask="url(#y)" transform="translate(-180 -316)"><path d="M229.5 143.16c-.547 0-1 .457-1 1 0 .547.453 1 1 1s1-.453 1-1c0-.543-.453-1-1-1zm0 0" fill="#2e3436"/></g><g clip-path="url(#z)" mask="url(#A)" transform="translate(-180 -316)"><path d="M226.453 143.16a.962.962 0 0 0-.953.953v.094c0 .52.434.953.953.953h.094c.52 0 .953-.433.953-.953v-.094a.962.962 0 0 0-.953-.953zm0 0" fill="#2e3436"/></g></svg>