<svg xmlns="http://www.w3.org/2000/svg" width="16" style="enable-background:new" height="16.001"><path d="M338.705 228a.5.5 0 0 0-.437.64l.425 1.544c-.424.11-.838.262-1.238.457l-1.021-1.766a.5.5 0 0 0-.457-.256.5.5 0 0 0-.41.758l1.017 1.758c-.078.05-.149.11-.225.162l-2.828-2.828-1.06 1.06 14 14 1.06-1.06-2.695-2.696C346.753 238.065 348 236 348 236s-.525-.87-1.41-1.945l.764-.764a.5.5 0 0 0-.364-.857.5.5 0 0 0-.344.15l-.72.72c-.2-.218-.411-.426-.635-.644l1.104-1.414a.5.5 0 0 0-.416-.812.5.5 0 0 0-.374.197l-1.05 1.344c-.26-.22-.528-.43-.809-.627l1.072-1.739a.5.5 0 0 0-.45-.767.5.5 0 0 0-.4.242l-1.075 1.738c-.364-.2-.74-.37-1.127-.504l.57-1.646a.5.5 0 0 0-.461-.672.5.5 0 0 0-.482.344l-.598 1.72A5.066 5.066 0 0 0 340 230c-.105 0-.208.019-.313.025l-.455-1.65a.5.5 0 0 0-.476-.375.5.5 0 0 0-.05 0zm1.295 4c3.866 0 6 4 6 4s-.796 1.486-2.291 2.646l-1.133-1.132A2.97 2.97 0 0 0 343 236a3 3 0 0 0-3-3 2.97 2.97 0 0 0-1.514.424l-.88-.881A5.611 5.611 0 0 1 340 232zm-6.99.434a.5.5 0 0 0-.364.857l.764.764A18.297 18.297 0 0 0 332 236s3.582 6 8 6c.885 0 1.734-.248 2.53-.633l-1.48-1.478A5.444 5.444 0 0 1 340 240c-3.866 0-6-4-6-4s.481-.87 1.365-1.797l-1.097-1.096c-.064.066-.133.131-.194.198l-.72-.721a.501.501 0 0 0-.344-.15zm6.498 1.392a.69.69 0 0 1 .681.697.72.72 0 0 1-.162.442l-.963-.963a.668.668 0 0 1 .444-.176zm-2.492 2.028c-.003.05-.016.096-.016.146a3 3 0 0 0 3 3c.05 0 .098-.014.148-.016z" style="fill:#2e3436;fill-opacity:1;stroke:none" transform="translate(-332 -228)"/></svg>