<svg xmlns="http://www.w3.org/2000/svg" width="16.018" height="16.005"><g color="#bebebe" fill="#2e3436"><path d="M12.018 8a4 4 0 0 1-4 4c-1.485 0-2.779-.8-3.47-2L1.08 12c1.43 2.475 4.08 4 6.938 4a8 8 0 0 0 8-8z" style="marker:none" overflow="visible"/><path d="M8.018 0a7.98 7.98 0 0 0-4 1.063C.19 3.272-1.13 8.172 1.08 12l3.469-2a4.018 4.018 0 0 1-.531-2 4 4 0 0 1 4-4z" style="marker:none" overflow="visible" opacity=".35"/><path d="M11.018 8a3 3 0 0 1-3 3 3 3 0 0 1-3-3 3 3 0 0 1 3-3 3 3 0 0 1 3 3z" style="marker:none" overflow="visible"/></g></svg>