<svg height="16" width="16" xmlns="http://www.w3.org/2000/svg"><filter id="a" height="100%" width="100%" x="0%" y="0%"><feColorMatrix in="SourceGraphic" values="0 0 0 0 1 0 0 0 0 1 0 0 0 0 1 0 0 0 1 0"/></filter><mask id="c"><g filter="url(#a)"><path d="M0 0h16v16H0z" fill-opacity=".3"/></g></mask><clipPath id="b"><path d="M0 0h1024v800H0z"/></clipPath><mask id="e"><g filter="url(#a)"><path d="M0 0h16v16H0z" fill-opacity=".05"/></g></mask><clipPath id="d"><path d="M0 0h1024v800H0z"/></clipPath><mask id="g"><g filter="url(#a)"><path d="M0 0h16v16H0z" fill-opacity=".05"/></g></mask><clipPath id="f"><path d="M0 0h1024v800H0z"/></clipPath><mask id="i"><g filter="url(#a)"><path d="M0 0h16v16H0z" fill-opacity=".05"/></g></mask><clipPath id="h"><path d="M0 0h1024v800H0z"/></clipPath><mask id="k"><g filter="url(#a)"><path d="M0 0h16v16H0z" fill-opacity=".05"/></g></mask><clipPath id="j"><path d="M0 0h1024v800H0z"/></clipPath><mask id="m"><g filter="url(#a)"><path d="M0 0h16v16H0z" fill-opacity=".05"/></g></mask><clipPath id="l"><path d="M0 0h1024v800H0z"/></clipPath><mask id="o"><g filter="url(#a)"><path d="M0 0h16v16H0z" fill-opacity=".05"/></g></mask><clipPath id="n"><path d="M0 0h1024v800H0z"/></clipPath><mask id="q"><g filter="url(#a)"><path d="M0 0h16v16H0z" fill-opacity=".3"/></g></mask><clipPath id="p"><path d="M0 0h1024v800H0z"/></clipPath><mask id="s"><g filter="url(#a)"><path d="M0 0h16v16H0z" fill-opacity=".5"/></g></mask><clipPath id="r"><path d="M0 0h1024v800H0z"/></clipPath><mask id="u"><g filter="url(#a)"><path d="M0 0h16v16H0z" fill-opacity=".4"/></g></mask><clipPath id="t"><path d="M0 0h1024v800H0z"/></clipPath><mask id="w"><g filter="url(#a)"><path d="M0 0h16v16H0z" fill-opacity=".4"/></g></mask><clipPath id="v"><path d="M0 0h1024v800H0z"/></clipPath><mask id="y"><g filter="url(#a)"><path d="M0 0h16v16H0z" fill-opacity=".5"/></g></mask><clipPath id="x"><path d="M0 0h1024v800H0z"/></clipPath><mask id="A"><g filter="url(#a)"><path d="M0 0h16v16H0z" fill-opacity=".5"/></g></mask><clipPath id="z"><path d="M0 0h1024v800H0z"/></clipPath><g clip-path="url(#b)" mask="url(#c)" transform="translate(-340 -60)"><path d="M562.46 212.059h10.45c-1.183.492-1.297 2.46 0 3h-10.45zm0 0" fill="#2e3436"/></g><g clip-path="url(#d)" mask="url(#e)" transform="translate(-340 -60)"><path d="M16 632h1v1h-1zm0 0" fill="#2e3436" fill-rule="evenodd"/></g><g clip-path="url(#f)" mask="url(#g)" transform="translate(-340 -60)"><path d="M17 631h1v1h-1zm0 0" fill="#2e3436" fill-rule="evenodd"/></g><g clip-path="url(#h)" mask="url(#i)" transform="translate(-340 -60)"><path d="M18 634h1v1h-1zm0 0" fill="#2e3436" fill-rule="evenodd"/></g><g clip-path="url(#j)" mask="url(#k)" transform="translate(-340 -60)"><path d="M16 634h1v1h-1zm0 0" fill="#2e3436" fill-rule="evenodd"/></g><g clip-path="url(#l)" mask="url(#m)" transform="translate(-340 -60)"><path d="M17 635h1v1h-1zm0 0" fill="#2e3436" fill-rule="evenodd"/></g><g clip-path="url(#n)" mask="url(#o)" transform="translate(-340 -60)"><path d="M19 635h1v1h-1zm0 0" fill="#2e3436" fill-rule="evenodd"/></g><g clip-path="url(#p)" mask="url(#q)" transform="translate(-340 -60)"><path d="M136 660v7h7v-7zm0 0" fill="#2e3436"/></g><g clip-path="url(#r)" mask="url(#s)" transform="translate(-340 -60)"><path d="M199 642h3v12h-3zm0 0" fill="#2e3436"/></g><g clip-path="url(#t)" mask="url(#u)" transform="translate(-340 -60)"><path d="M209.5 144.16c.277 0 .5.223.5.5v1c0 .278-.223.5-.5.5s-.5-.222-.5-.5v-1c0-.277.223-.5.5-.5zm0 0" fill="#2e3436"/></g><g clip-path="url(#v)" mask="url(#w)" transform="translate(-340 -60)"><path d="M206.5 144.16c.277 0 .5.223.5.5v1c0 .278-.223.5-.5.5s-.5-.222-.5-.5v-1c0-.277.223-.5.5-.5zm0 0" fill="#2e3436"/></g><g clip-path="url(#x)" mask="url(#y)" transform="translate(-340 -60)"><path d="M229.5 143.16c-.547 0-1 .457-1 1 0 .547.453 1 1 1s1-.453 1-1c0-.543-.453-1-1-1zm0 0" fill="#2e3436"/></g><g clip-path="url(#z)" mask="url(#A)" transform="translate(-340 -60)"><path d="M226.453 143.16a.962.962 0 0 0-.953.953v.094c0 .52.434.953.953.953h.094c.52 0 .953-.433.953-.953v-.094a.962.962 0 0 0-.953-.953zm0 0" fill="#2e3436"/></g><path d="M14.875 14h-1.5l-1.5-4h-4l-3-7.5V2" fill="none" stroke="#2e3436" stroke-linecap="round" stroke-linejoin="round" stroke-width="2"/><path d="M8 2.125a2 2 0 1 1-2-2c1.105 0 2 .895 2 2zM4.25 5.707c-1.809.848-3.066 2.684-3.066 4.8 0 2.919 2.382 5.305 5.3 5.305 1.934 0 3.582-1.066 4.489-2.628l-.489-1.227h-.957a3.349 3.349 0 0 1-3.043 1.926 3.361 3.361 0 0 1-3.375-3.375c0-1.309.743-2.422 1.825-2.985zm0 0" fill="#2e3436"/><g fill="none" stroke="#2e3436" stroke-linecap="round" stroke-width="2"><path d="M7 7h4M-18 2l12 12"/></g></svg>