<svg height="16" width="16" xmlns="http://www.w3.org/2000/svg"><path d="M5.543 1.004a2.5 2.5 0 0 0-1.844.727 1.017 1.017 0 0 0-.273.976 1 1 0 0 0 1.691.438.486.486 0 0 1 .598-.079c.2.114.289.34.23.563A.484.484 0 0 1 5.47 4H0v2h5.469a2.503 2.503 0 0 0 2.41-1.855 2.51 2.51 0 0 0-1.16-2.81 2.51 2.51 0 0 0-1.176-.331zm6.77 1A3.524 3.524 0 0 0 9.073 4.77a1 1 0 0 0 1.957.418 1.49 1.49 0 0 1 1.676-1.176 1.49 1.49 0 0 1 1.29 1.593A1.485 1.485 0 0 1 12.5 7H0v2h12.5a3.514 3.514 0 0 0 3.492-3.258 3.517 3.517 0 0 0-3.004-3.71 3.572 3.572 0 0 0-.675-.028zM0 10v2h10c.469 0 .863.313.973.77s-.106.914-.524 1.125a.99.99 0 0 1-1.21-.25.999.999 0 1 0-1.532 1.28 2.994 2.994 0 0 0 3.64.755 3.01 3.01 0 0 0 1.575-3.371A3.012 3.012 0 0 0 10 10zm0 0" fill="#2e3436"/></svg>